<svg width="106" height="129" viewBox="0 0 106 129" fill="none" xmlns="http://www.w3.org/2000/svg">
<path d="M52.5 0C53.8736 0.942988 55.0473 4.57804 54.1075 5.96109C53.372 7.04553 51.7909 7.04553 51.0553 5.96109C50.1155 4.57804 51.1264 0.942988 52.5 0C52.8363 0 52.1637 0 52.5 0Z" fill="#59B73F"/>
<path d="M52.4693 128.997C39.4592 128.997 26.4522 128.997 13.4421 128.997C13.0649 128.997 12.6878 129.009 12.3137 128.99C11.0532 128.924 10.2203 128.164 10.2234 127.101C10.2266 126.029 11.0532 125.241 12.32 125.231C15.7493 125.203 19.1787 125.219 22.6111 125.219C24.8712 125.219 27.1312 125.175 29.3881 125.241C30.2996 125.266 30.5291 124.951 30.4882 124.096C30.4222 122.76 30.4631 121.421 30.4725 120.082C30.4882 118.288 31.0917 117.659 32.8708 117.653C37.0954 117.637 41.32 117.618 45.5446 117.668C46.5536 117.681 46.9339 117.458 46.9025 116.37C46.8239 113.695 46.8239 111.014 46.9025 108.339C46.9339 107.242 46.6353 106.937 45.5163 106.94C32.0064 106.981 18.4934 106.965 4.98354 106.965C4.18829 106.965 3.39303 106.972 2.59778 106.962C0.721233 106.94 0.224592 106.34 0.0862873 104.492C-0.344344 98.7331 0.916117 93.2041 2.11057 87.6436C4.79494 75.149 7.38502 62.6324 10.0222 50.1284C10.5126 47.8023 10.8646 47.5352 13.219 47.5352C29.2812 47.5352 45.3434 47.5352 61.4057 47.5352C71.5271 47.5352 81.6516 47.5352 91.773 47.5352C94.3442 47.5352 94.6429 47.7552 95.1615 50.2101C98.4274 65.7002 101.737 81.1778 104.893 96.69C105.465 99.5001 105.072 102.445 104.994 105.328C104.969 106.255 104.308 106.827 103.347 106.921C102.891 106.965 102.429 106.959 101.967 106.959C87.869 106.962 73.7745 106.972 59.6768 106.937C58.6144 106.934 58.2184 107.145 58.2561 108.298C58.3472 111.014 58.3221 113.736 58.2655 116.452C58.2467 117.385 58.5075 117.668 59.4568 117.656C63.6814 117.605 67.906 117.627 72.1306 117.637C74.0951 117.64 74.6767 118.228 74.6892 120.161C74.6986 121.459 74.7552 122.757 74.6704 124.049C74.6075 125.011 74.9407 125.234 75.868 125.225C81.265 125.181 86.6589 125.203 92.0559 125.203C93.9859 125.203 94.9069 125.797 94.932 127.054C94.9603 128.346 93.9953 128.978 91.9931 128.978C78.8195 128.997 65.6428 128.997 52.4693 128.997ZM52.5353 103.187C68.0474 103.187 83.5627 103.187 99.0749 103.187C101.278 103.187 101.203 103.184 101.307 100.94C101.363 99.7076 101.068 99.3524 99.7633 99.3555C73.9223 99.3995 48.0812 99.3901 22.2402 99.3869C21.7813 99.3869 21.313 99.4184 20.8635 99.3492C19.8733 99.1952 19.2698 98.5885 19.2227 97.5858C19.1755 96.5705 19.7476 95.9325 20.7126 95.6936C21.1086 95.5961 21.5424 95.6213 21.9605 95.6181C25.6413 95.6118 29.3189 95.6087 32.9997 95.6213C33.6064 95.6244 33.9867 95.593 34.0339 94.7914C34.2287 91.3275 34.4834 87.8668 34.7663 84.4091C34.8354 83.573 34.5808 83.3404 33.751 83.3436C25.1383 83.3687 16.5226 83.3718 7.90995 83.3404C7.12727 83.3373 6.81608 83.5919 6.66834 84.34C5.97996 87.7788 5.26958 91.2144 4.5089 94.6374C4.33288 95.4327 4.47747 95.6496 5.30415 95.6338C7.56104 95.5835 9.82107 95.615 12.078 95.6181C13.8728 95.6213 14.7529 96.2625 14.734 97.5387C14.7152 98.7991 13.8539 99.3932 12.0245 99.3964C10.1417 99.3995 8.26199 99.3964 6.37916 99.3964C3.88339 99.3964 3.95254 99.3995 3.85824 101.854C3.81423 102.999 4.17886 103.215 5.25072 103.212C21.0081 103.178 36.7717 103.187 52.5353 103.187ZM52.5762 95.6181C57.1716 95.6181 61.7671 95.5993 66.3626 95.6338C67.1673 95.6401 67.4534 95.4515 67.3779 94.5965C67.1265 91.7676 66.9756 88.9323 66.7304 86.1034C66.4915 83.3593 66.4601 83.3624 63.738 83.3624C55.7572 83.3624 47.7795 83.3656 39.7987 83.3561C39.082 83.3561 38.5539 83.3216 38.5036 84.3431C38.3307 87.7222 38.0793 91.0949 37.7838 94.4645C37.6989 95.4295 37.9756 95.6496 38.9154 95.6401C43.4669 95.5898 48.0215 95.6181 52.5762 95.6181ZM86.0334 95.6181C90.588 95.6181 95.1458 95.6024 99.7004 95.6307C100.533 95.637 100.879 95.571 100.643 94.5494C99.8576 91.1766 99.1818 87.7787 98.4965 84.3808C98.3551 83.6736 98.1256 83.3341 97.2926 83.3373C88.6832 83.3719 80.0705 83.3718 71.4611 83.3404C70.5464 83.3373 70.3358 83.6327 70.4049 84.4909C70.6847 87.9485 70.9393 91.4061 71.1373 94.87C71.1876 95.747 71.7094 95.615 72.2406 95.615C76.8361 95.6181 81.4347 95.6181 86.0334 95.6181ZM52.5793 79.5779C56.8007 79.5779 61.019 79.5779 65.2405 79.5779C65.7748 79.5779 66.3092 79.7131 66.2338 78.7889C65.9509 75.3344 65.7245 71.8737 65.5234 68.4129C65.4731 67.5485 65.1367 67.3222 64.2975 67.3253C56.4833 67.3568 48.6722 67.3631 40.858 67.319C39.871 67.3128 39.6698 67.7025 39.6226 68.5418C39.4278 71.8768 39.2203 75.2119 38.9405 78.5437C38.8682 79.405 39.0977 79.603 39.9213 79.5968C44.1396 79.559 48.361 79.5779 52.5793 79.5779ZM21.3821 79.5779C25.5595 79.5779 29.737 79.5465 33.9113 79.603C34.8354 79.6156 35.134 79.3421 35.1843 78.44C35.3729 75.0201 35.6024 71.6065 35.8758 68.1929C35.945 67.3411 35.5112 67.341 34.9108 67.341C27.018 67.3473 19.1221 67.3536 11.2293 67.3316C10.5252 67.3285 10.214 67.5234 10.0694 68.2589C9.38729 71.6945 8.67062 75.1238 7.88794 78.5375C7.65848 79.537 8.03568 79.5968 8.85293 79.5905C13.0272 79.559 17.2047 79.5779 21.3821 79.5779ZM83.6979 79.5779C87.9602 79.5779 92.2194 79.559 96.4817 79.5936C97.2832 79.5999 97.4624 79.4176 97.2801 78.616C96.6388 75.7682 96.0636 72.9047 95.4727 70.0474C94.9132 67.3442 94.9195 67.3442 92.1282 67.3442C84.9018 67.3442 77.6754 67.3411 70.4489 67.3473C69.8548 67.3473 69.1822 67.1399 69.2765 68.2337C69.5625 71.6034 69.7763 74.9793 69.9743 78.3583C70.0277 79.2636 70.2918 79.6219 71.2945 79.6062C75.4248 79.5402 79.5613 79.5779 83.6979 79.5779ZM52.4473 63.5502C56.2475 63.5502 60.0509 63.5125 63.8511 63.5754C64.8853 63.5911 65.2185 63.3554 65.1179 62.2709C64.813 58.9453 64.593 55.6103 64.3886 52.2784C64.3446 51.5806 64.1183 51.3291 63.4205 51.3448C61.7074 51.3794 59.9943 51.3543 58.2844 51.3543C52.8559 51.3543 47.4243 51.3511 41.9958 51.3574C41.4457 51.3574 40.8297 51.1782 40.7731 52.1369C40.5719 55.5977 40.3204 59.0522 40.0376 62.5067C39.9715 63.3334 40.2136 63.5754 41.0434 63.5691C44.8436 63.5282 48.647 63.5502 52.4473 63.5502ZM23.6233 63.5502C27.4675 63.5502 31.3118 63.544 35.156 63.5565C35.7941 63.5597 36.2373 63.5471 36.2876 62.6733C36.4762 59.2974 36.7245 55.9215 37.0106 52.5519C37.086 51.6403 36.888 51.326 35.901 51.3323C28.8411 51.3731 21.7782 51.3668 14.7183 51.3385C13.9042 51.3354 13.5616 51.568 13.3981 52.4104C12.7475 55.7674 12.0434 59.1182 11.2733 62.4501C11.0501 63.4214 11.3456 63.5754 12.2194 63.5691C16.0196 63.5314 19.8199 63.5502 23.6233 63.5502ZM81.441 63.5502C85.2853 63.5502 89.1295 63.5282 92.9738 63.566C93.8948 63.5754 94.0959 63.3459 93.8822 62.4187C93.1246 59.1276 92.4268 55.8177 91.7793 52.5016C91.6127 51.6497 91.3298 51.326 90.4183 51.3291C83.3584 51.3668 76.2954 51.3731 69.2356 51.326C68.1983 51.3197 68.0883 51.7157 68.1606 52.577C68.4341 55.8649 68.6855 59.1559 68.8678 62.4501C68.915 63.3176 69.1759 63.5785 70.0371 63.5691C73.8374 63.5251 77.6376 63.5502 81.441 63.5502ZM52.507 125.219C57.8192 125.219 63.1313 125.219 68.4435 125.219C70.9236 125.219 70.845 125.215 70.9487 122.738C70.999 121.55 70.5589 121.403 69.5311 121.406C58.6144 121.44 47.6978 121.428 36.7811 121.428C34.2319 121.428 34.2948 121.431 34.2193 123.974C34.1847 125.077 34.5777 125.253 35.5678 125.244C41.2131 125.197 46.8585 125.219 52.507 125.219ZM54.4998 112.318C54.4998 111.445 54.4998 110.568 54.4998 109.694C54.4998 106.852 54.4998 106.884 51.6206 106.95C50.8222 106.969 50.6367 107.264 50.6462 107.987C50.6776 110.278 50.6556 112.57 50.6556 114.858C50.6556 117.81 50.6556 117.781 53.5977 117.662C54.3333 117.634 54.5187 117.357 54.5061 116.688C54.4778 115.232 54.4998 113.774 54.4998 112.318Z" fill="#59B73F"/>
<path d="M52.6231 29.5776C47.4901 29.6279 43.1178 25.2808 43.0958 20.11C43.0738 14.9739 47.4587 10.5921 52.598 10.6173C57.7215 10.6424 61.9618 14.8545 62.0656 20.022C62.163 25.1142 57.8033 29.5305 52.6231 29.5776ZM58.2716 20.0598C58.2433 16.9667 55.6564 14.4081 52.5697 14.4144C49.4798 14.4207 46.896 16.9888 46.874 20.0723C46.8552 23.1748 49.5553 25.856 52.6451 25.7994C55.7318 25.7428 58.2999 23.1213 58.2716 20.0598Z" fill="#59B73F"/>
<path d="M54.5107 36.5254C54.4699 37.0755 54.4667 37.5784 54.3913 38.0688C54.2341 39.0746 53.6118 39.631 52.6059 39.6435C51.6032 39.6561 50.9494 39.128 50.7797 38.1222C50.6036 37.0912 50.6194 36.0476 50.7702 35.0135C50.918 33.9982 51.5781 33.4387 52.5556 33.4261C53.5332 33.4104 54.2121 33.951 54.3787 34.9632C54.4667 35.4913 54.473 36.035 54.5107 36.5254Z" fill="#59B73F"/>
<path d="M41.8328 11.2477C40.6258 11.2382 38.1834 8.71731 38.2211 7.51972C38.262 6.20582 39.645 5.26597 40.7923 5.90406C41.9585 6.55158 42.9486 7.50714 43.5522 8.71417C44.1242 9.86461 43.1152 11.2602 41.8328 11.2477Z" fill="#59B73F"/>
<path d="M63.269 11.2451C62.6277 11.1791 62.0494 10.8962 61.6942 10.2613C61.339 9.62634 61.3327 8.96311 61.7633 8.37531C62.4297 7.4669 63.2187 6.65907 64.1428 6.01155C64.7306 5.59664 65.397 5.61864 66.0288 5.98326C66.6669 6.34789 66.9592 6.91682 66.9466 7.63978C66.9183 8.78708 64.4603 11.2326 63.269 11.2451Z" fill="#59B73F"/>
<path d="M36.2345 18.1953C36.7312 18.2267 37.2373 18.2173 37.7276 18.3022C38.6737 18.4625 39.2018 19.088 39.249 20.0153C39.2961 20.9488 38.8246 21.6309 37.8942 21.8604C36.7909 22.1307 35.6625 22.093 34.5497 21.9044C33.547 21.7347 33.0001 21.0683 33.0284 20.0719C33.0567 19.0189 33.6696 18.3808 34.7383 18.2739C35.2318 18.2236 35.7348 18.2645 36.2345 18.2645C36.2345 18.2393 36.2345 18.2173 36.2345 18.1953Z" fill="#59B73F"/>
<path d="M68.9448 22.0286C68.5299 22.0003 68.027 22.0035 67.5366 21.9281C66.4836 21.7615 65.877 21.1045 65.9116 20.0484C65.943 18.9985 66.5717 18.3478 67.6404 18.2693C68.5111 18.2064 69.388 18.2095 70.2619 18.2504C71.3746 18.3007 72.0818 18.9073 72.129 20.0326C72.173 21.1611 71.5003 21.796 70.4033 21.9532C69.9507 22.0161 69.4886 22.0035 68.9448 22.0286Z" fill="#59B73F"/>
<path d="M43.7265 30.8461C43.717 32.0531 41.1993 34.4986 40.0017 34.4609C38.6878 34.42 37.7479 33.0433 38.3829 31.8865C39.0241 30.7172 39.986 29.7271 41.1867 29.1236C42.3371 28.5484 43.7359 29.5668 43.7265 30.8461Z" fill="#59B73F"/>
<path d="M63.3175 28.9707C63.6978 29.0147 64.1285 29.065 64.4397 29.3668C65.1595 30.0551 65.9264 30.7121 66.5425 31.4853C67.1932 32.2995 67.1303 33.233 66.3602 33.9591C65.6404 34.6381 64.7414 34.6946 63.9744 34.0691C63.2075 33.4436 62.5191 32.7049 61.859 31.96C61.3467 31.3816 61.3026 30.6775 61.6641 29.9797C62.0036 29.3322 62.5757 29.0336 63.3175 28.9707Z" fill="#59B73F"/>
</svg>
