<svg width="132" height="129" viewBox="0 0 132 129" fill="none" xmlns="http://www.w3.org/2000/svg">
<path d="M131.993 122.594C131.711 123.304 131.49 124.049 131.132 124.722C129.721 127.365 127.483 128.752 124.511 128.962C124.085 128.993 123.654 128.986 123.224 128.986C85.0823 128.986 46.9442 128.983 8.80262 129C6.08954 129 3.67945 128.372 1.89942 126.209C-0.107853 123.773 -0.562337 121.017 0.718459 118.123C1.96827 115.297 4.20966 113.665 7.32902 113.551C8.5203 113.507 8.79574 113.158 8.79574 112.006C8.76131 89.5404 8.80262 67.0748 8.73721 44.6127C8.72688 41.2525 9.9216 38.8272 12.645 36.8539C28.531 25.321 44.3585 13.7018 60.2101 2.11712C64.0283 -0.673826 67.9465 -0.715225 71.7544 2.05157C77.7315 6.39496 83.6879 10.7694 89.6477 15.1404C91.0455 16.165 91.2177 17.7416 90.0299 18.5523C89.052 19.2181 88.1775 18.8697 87.3168 18.2349C82.4346 14.6471 77.5455 11.073 72.6565 7.49547C71.6511 6.76065 70.6458 6.02238 69.637 5.29101C67.0685 3.43152 64.9924 3.42462 62.448 5.28065C51.2101 13.4914 39.9755 21.709 28.7376 29.9231C24.0207 33.3695 19.321 36.8401 14.5765 40.2486C13.2372 41.2111 12.6244 42.3771 12.6278 44.0503C12.6553 66.7298 12.6553 89.4093 12.6209 112.092C12.6175 113.234 12.9032 113.641 14.0463 113.507C15.2307 113.365 16.756 113.99 17.5341 113.269C18.3294 112.53 17.7854 110.988 17.7854 109.805C17.8026 88.9746 17.8198 68.1442 17.7647 47.3174C17.7579 45.206 18.4534 43.7847 20.1611 42.5462C34.2739 32.2966 48.3386 21.9815 62.417 11.6871C65.0371 9.76894 66.9962 9.75169 69.5819 11.6422C83.7326 21.9884 97.8696 32.3484 112.041 42.66C113.621 43.8123 114.282 45.1612 114.279 47.1207C114.234 68.7238 114.262 90.3304 114.224 111.933C114.22 113.141 114.461 113.686 115.752 113.503C116.927 113.338 118.514 114.028 119.195 113.21C119.777 112.517 119.399 110.992 119.399 109.833C119.406 88.0569 119.381 66.2813 119.437 44.5023C119.44 42.4737 118.741 41.1317 117.119 39.9657C110.006 34.8461 102.955 29.6437 95.8795 24.4723C95.6006 24.2688 95.308 24.0825 95.0532 23.8582C94.2303 23.1303 94.0823 22.0125 94.6814 21.1984C95.2942 20.3635 96.3719 20.1324 97.3084 20.7671C98.9748 21.9056 100.593 23.1165 102.222 24.3067C108.013 28.5397 113.773 32.8175 119.602 36.9988C122.163 38.8376 123.303 41.1869 123.296 44.347C123.248 66.854 123.282 89.3644 123.241 111.871C123.238 113.137 123.52 113.503 124.835 113.565C128.058 113.724 130.223 115.525 131.494 118.464C131.676 118.888 131.632 119.402 132 119.754C131.993 120.7 131.993 121.645 131.993 122.594ZM68.2322 92.3313C69.1756 90.8444 69.9572 89.5266 70.8248 88.2742C71.2104 87.7188 71.2793 87.2945 71.0176 86.639C69.8057 83.6135 69.9159 80.5776 71.2276 77.6107C72.7804 74.1022 75.6347 71.9667 79.0226 70.466C84.6071 67.989 90.4671 67.6302 96.4442 68.3133C99.202 68.6272 100.641 70.7661 99.9526 73.4743C99.6771 74.5541 99.3569 75.6305 98.992 76.6827C97.0157 82.3957 94.1236 87.5049 89.1553 91.1687C84.5417 94.5737 79.0811 94.6048 74.4537 91.2411C73.8443 90.7961 73.6309 90.9341 73.2934 91.4654C71.9748 93.5457 70.9729 95.7708 70.2154 98.1133C69.971 98.8654 70.1396 99.1655 70.9281 99.3345C74.6293 100.121 77.6523 102.07 80.1312 104.896C80.5444 105.368 81.0058 105.658 81.6152 105.834C83.7498 106.459 85.6228 107.569 87.2479 109.094C88.2016 109.988 88.811 111.085 88.7387 112.396C88.6871 113.369 89.0658 113.514 89.9162 113.51C96.272 113.479 102.631 113.462 108.987 113.52C110.137 113.531 110.406 113.213 110.402 112.085C110.368 91.2101 110.368 70.3384 110.399 49.4632C110.399 48.3868 110.113 48.1108 109.046 48.1108C80.3516 48.1384 51.6611 48.1419 22.9671 48.1108C21.8757 48.1108 21.6278 48.4213 21.6312 49.4804C21.6657 62.6934 21.6553 75.9065 21.6553 89.1195C21.6553 96.823 21.676 104.527 21.6312 112.23C21.6243 113.265 21.9273 113.551 22.9327 113.514C24.9055 113.441 26.8853 113.476 28.8581 113.5C30.2387 113.517 30.9996 114.186 31.0375 115.339C31.0754 116.529 30.2697 117.288 28.8684 117.36C28.4828 117.381 28.0937 117.367 27.7081 117.367C21.0941 117.367 14.4801 117.353 7.86268 117.381C5.65572 117.391 4.03063 118.933 3.91013 120.996C3.78618 123.08 5.3493 124.846 7.54938 125.084C7.93155 125.126 8.32061 125.112 8.70622 125.112C46.8925 125.112 85.0754 125.112 123.262 125.115C123.95 125.115 124.635 125.115 125.307 124.922C128.12 124.115 129.049 120.603 127.004 118.509C126.016 117.498 124.78 117.357 123.448 117.357C95.5283 117.37 67.609 117.367 39.6898 117.367C39.3041 117.367 38.9151 117.381 38.5295 117.364C37.1041 117.301 36.2881 116.587 36.2881 115.411C36.2881 114.217 37.0834 113.514 38.5295 113.503C40.764 113.482 42.9951 113.486 45.2296 113.503C45.8527 113.507 46.2728 113.482 46.2556 112.63C46.2211 110.971 47.0165 109.688 48.2869 108.646C49.8329 107.376 51.5268 106.39 53.448 105.827C54.0023 105.665 54.4568 105.43 54.8459 104.985C57.4006 102.039 60.5371 100.045 64.383 99.269C65.0819 99.1275 65.2471 98.8171 65.1852 98.134C64.8546 94.3805 64.0318 90.7513 62.5685 87.2738C61.9315 85.7558 61.9384 85.7765 60.5165 86.5321C56.1542 88.8538 51.7231 88.8642 47.2713 86.8184C46.0938 86.2768 45.7081 85.1901 46.2039 84.162C46.6687 83.1995 47.6844 82.8683 48.8344 83.3099C49.1959 83.4479 49.5436 83.6204 49.9051 83.748C52.7973 84.7588 55.6377 84.6726 58.399 83.2892C60.0861 82.4405 60.0861 82.4095 59.0084 80.9226C58.6572 80.4361 58.2888 79.9566 57.917 79.484C54.7701 75.5201 50.6833 72.6601 46.5723 69.8312C45.381 69.0136 45.0918 67.9786 45.7288 66.9816C46.3554 65.9984 47.4916 65.8018 48.6519 66.578C53.7407 69.983 58.6331 73.6123 62.2001 78.7285C62.2931 78.863 62.3929 79.0044 62.6408 78.9354C63.3088 77.6866 63.6565 76.3204 63.684 74.8853C63.7667 70.366 61.5494 67.1162 57.9308 64.7013C51.5096 60.42 44.2655 59.423 36.7736 59.4368C35.8439 59.4402 35.7166 59.9094 35.8508 60.6822C36.3363 63.5283 37.0662 66.3089 38.0474 69.0205C39.1492 72.0667 40.6022 74.9301 42.5027 77.5658C43.3393 78.7285 43.1947 79.8221 42.2238 80.5086C41.2908 81.1675 40.1924 80.8915 39.3455 79.7772C39.2663 79.6737 39.194 79.5702 39.1182 79.4633C35.1588 73.8227 33.0172 67.4715 31.9809 60.7236C31.5402 57.8602 33.3443 55.7661 36.2468 55.5902C38.9977 55.4211 41.7418 55.6109 44.4721 55.9696C50.6902 56.7873 56.5364 58.6019 61.5528 62.5554C67.8742 67.5371 69.3547 75.5166 65.2024 82.2232C64.8891 82.7268 64.8581 83.0891 65.1301 83.6204C66.497 86.3044 67.4885 89.1402 68.2322 92.3313ZM65.9908 44.2608C70.4117 44.2608 74.8325 44.2435 79.2533 44.278C80.1312 44.2849 80.5513 44.1538 80.5444 43.1051C80.4928 37.1713 80.5134 31.2375 80.5306 25.3003C80.5341 24.6793 80.3378 24.2826 79.8283 23.9134C75.5865 20.843 71.3585 17.7519 67.1442 14.6402C66.3764 14.0744 65.7326 14.0295 64.9442 14.6126C60.7334 17.7243 56.5054 20.8154 52.2602 23.8824C51.7127 24.2791 51.5027 24.7034 51.5027 25.3762C51.5268 31.2686 51.5371 37.1609 51.4958 43.0499C51.4889 44.0227 51.7713 44.2918 52.7318 44.2815C57.1492 44.2332 61.57 44.2608 65.9908 44.2608ZM67.5677 113.489C72.8459 113.489 78.124 113.489 83.4055 113.486C83.9599 113.486 84.583 113.548 84.8275 112.882C85.0754 112.216 84.5761 111.854 84.1423 111.499C82.8925 110.485 81.5153 109.708 79.9246 109.391C78.9985 109.205 78.3064 108.763 77.7005 108.011C72.0746 101.035 62.9713 101.028 57.3489 108.001C56.743 108.753 56.0612 109.205 55.1316 109.387C53.6305 109.684 52.3049 110.391 51.1205 111.34C50.6488 111.72 49.912 112.04 50.2013 112.855C50.4836 113.655 51.2376 113.479 51.8608 113.482C57.0976 113.493 62.3309 113.489 67.5677 113.489ZM74.2368 84.2206C75.8378 82.6682 77.308 81.4297 78.8814 80.3119C80.8095 78.9423 82.834 77.7314 84.9996 76.7827C86.0532 76.3204 87.062 76.7034 87.5302 77.6279C87.995 78.5456 87.6817 79.6047 86.7418 80.1912C86.3803 80.4189 85.9774 80.5776 85.5953 80.7708C82.3967 82.3922 79.5218 84.4621 76.9465 86.9667C76.282 87.6119 76.3887 87.9465 77.0773 88.4053C78.2789 89.2092 79.5666 89.7163 81.0195 89.8163C84.3042 90.0475 86.7865 88.4571 88.966 86.2561C92.5673 82.6165 94.5643 78.0971 96.0138 73.2673C96.3099 72.2841 96.0035 72.0633 95.1289 72.0184C92.2127 71.8632 89.293 71.7873 86.4044 72.291C83.0784 72.8706 79.8833 73.8503 77.2219 76.0341C74.7395 78.0695 73.6997 80.6983 74.2368 84.2206ZM84.3833 27.2632C84.3833 27.9394 84.3833 28.2741 84.3833 28.6052C84.3833 33.3764 84.4143 38.151 84.3592 42.9222C84.3455 44.0089 84.6794 44.2884 85.7364 44.2815C92.5605 44.2366 99.381 44.2608 106.205 44.2504C106.522 44.2504 106.883 44.3884 107.283 44.0089C99.7185 38.4788 92.1886 32.9728 84.3833 27.2632ZM47.6465 27.277C39.8619 32.9659 32.3252 38.4788 24.699 44.0503C24.9641 44.1814 25.0329 44.247 25.1052 44.247C32.3114 44.2539 39.5176 44.2435 46.7238 44.2746C47.619 44.278 47.6534 43.8088 47.6534 43.1361C47.6397 39.0515 47.6465 34.9703 47.6465 30.8856C47.6465 29.7851 47.6465 28.688 47.6465 27.277Z" fill="#59B73F"/>
</svg>
