<svg width="210" height="57" viewBox="0 0 210 57" fill="none" xmlns="http://www.w3.org/2000/svg">
<path d="M33.9426 -0.000126898C34.207 0.643941 34.4713 1.28801 34.7423 1.92537C35.9583 4.78342 38.8926 5.71598 41.5162 4.0991C41.8797 3.8777 42.2432 3.6563 42.5869 3.41477C43.1156 3.04578 43.2874 3.27388 43.294 3.82403C43.3006 4.28024 43.3006 4.73645 43.3138 5.19267C43.4328 8.10439 45.9639 10.1104 48.7793 9.52C49.1956 9.43278 49.6054 9.33215 50.0151 9.23151C50.9271 9.01011 50.98 9.06379 50.7156 10.0165C50.5835 10.4794 50.405 10.9356 50.3191 11.4052C49.7706 14.3706 51.6078 16.7725 54.6082 17.0408C55.1435 17.0878 55.93 16.8798 56.1348 17.3763C56.3265 17.8459 55.692 18.3424 55.355 18.7718C54.3901 20.0062 54.1786 21.4017 54.5091 22.8777C54.6611 23.5352 54.4496 23.6828 53.8746 23.7096C53.1873 23.7432 52.5 23.7834 51.8259 23.9176C51.1981 24.0384 50.98 23.77 50.8214 23.2199C50.0085 20.4021 48.6735 17.8593 46.8495 15.585C42.9768 10.7612 37.9938 7.92996 31.8939 7.26576C24.9084 6.50093 18.8019 8.6277 13.7727 13.5656C9.81401 17.4501 7.57364 22.2538 7.12424 27.8759C6.66163 33.686 8.15521 38.919 11.5984 43.5751C11.8693 43.9374 11.9619 44.2594 11.7306 44.6687C11.3274 45.3932 10.9441 46.1312 10.5608 46.8625C10.4088 47.1577 10.2304 47.3657 9.88671 47.1242C8.75661 46.3325 7.50755 46.1581 6.17919 46.3862C5.92145 46.4331 5.65049 46.4063 5.38614 46.4063C5.04909 46.4063 4.96318 46.2252 5.09536 45.9367C5.31344 45.4469 5.53814 44.9639 5.76284 44.4741C6.97885 41.871 5.73641 38.9391 3.03342 38.0535C2.50472 37.8791 1.9628 37.7516 1.42749 37.6107C0.978097 37.49 0.931835 37.2686 1.25566 36.9466C1.55967 36.6446 1.85045 36.336 2.15446 36.0341C4.44109 33.7061 4.13708 30.4925 1.45393 28.6609C0.984706 28.3187 0.489048 28.0101 0 27.6948C0 27.6411 0 27.5874 0 27.5338C0.660876 27.1916 1.32175 26.8629 1.97602 26.514C3.76699 25.5479 4.65257 23.5821 4.3023 21.5829C4.08421 20.3484 3.29777 19.4762 2.61046 18.5369C2.30646 18.121 2.27341 17.8795 2.88142 17.8325C3.27795 17.8057 3.66786 17.7252 4.05778 17.6849C6.68146 17.4031 8.34026 15.4508 8.26095 12.7739C8.23452 11.895 7.88425 11.11 7.63312 10.2915C7.47451 9.76153 7.62651 9.58709 8.16182 9.70785C8.6773 9.82862 9.19279 9.92925 9.71488 10.0299C12.3121 10.5264 14.8102 8.52035 14.9292 5.85016C14.9556 5.23292 15.0283 4.6224 15.0482 4.00517C15.0614 3.5825 15.1935 3.45503 15.5702 3.68985C15.9734 3.94479 16.3765 4.19973 16.7863 4.44797C19.3835 6.00446 22.5028 4.87064 23.5272 1.99246C23.6858 1.53624 23.8378 1.08003 23.9964 0.623814C24.1352 0.221271 24.3335 0.187726 24.6044 0.523178C24.9613 0.952557 25.3116 1.39535 25.6883 1.8046C27.4528 3.72339 30.136 3.90453 32.0855 2.18031C32.7795 1.56979 33.3478 0.818376 33.7972 -0.00683594C33.8369 -0.000126898 33.8897 -0.000126898 33.9426 -0.000126898Z" fill="white"/>
<path d="M210 29.1442C209.24 31.1502 207.958 32.5456 205.79 32.9817C202.731 33.5923 199.671 31.1435 199.644 27.9768C199.611 23.8709 199.624 19.7716 199.638 15.6657C199.644 13.2572 201.455 11.0499 203.742 10.6071C206.313 10.1106 208.758 11.3988 209.703 13.7469C209.802 13.9952 209.894 14.2434 209.994 14.4916C210 19.3758 210 24.26 210 29.1442ZM203.054 21.6569H203.048C203.048 23.6428 203.028 25.6286 203.054 27.6145C203.068 28.688 203.801 29.4259 204.773 29.4192C205.764 29.4125 206.458 28.6879 206.458 27.5877C206.471 23.6696 206.465 19.7515 206.465 15.8334C206.465 15.4779 206.412 15.1424 206.213 14.8405C205.784 14.1897 205.017 13.861 204.27 14.1025C203.53 14.344 203.054 14.874 203.048 15.6992C203.048 17.6851 203.054 19.671 203.054 21.6569Z" fill="white"/>
<path d="M8.08925 57.0001C7.39533 56.5774 7.38211 56.0474 7.7522 55.3698C8.62456 53.7797 9.45066 52.1561 10.3032 50.546C10.779 49.6402 11.6117 49.3249 12.5436 49.2645C14.3345 49.1505 16.1255 49.0633 17.9231 48.9828C19.2382 48.9224 19.648 49.5061 19.1655 50.7472C18.5972 52.1964 18.009 53.6254 17.4671 55.088C17.0243 56.2755 16.1387 56.7585 14.9756 56.8726C14.5328 56.9195 14.0768 56.7988 13.6472 57.0068C11.7902 57.0001 9.9397 57.0001 8.08925 57.0001Z" fill="white"/>
<path d="M9.02738 30.6737C9.00756 19.4562 16.6671 10.6338 26.8644 9.29872C36.4339 8.05084 45.7258 13.9347 48.7262 23.1529C49.0566 24.166 48.9972 24.2263 47.9728 24.327C42.9303 24.8436 37.8878 25.3736 32.8454 25.8902C29.5872 26.2256 26.3357 26.5745 23.0776 26.8831C21.6435 27.0173 20.6522 27.6278 19.9649 28.983C17.8699 33.1091 15.6824 37.1815 13.5279 41.274C13.0852 42.1126 12.9926 42.1126 12.4573 41.3075C10.1839 37.8457 9.06703 34.0215 9.02738 30.6737Z" fill="white"/>
<path d="M177.538 19.6911C177.538 23.4616 177.538 27.2388 177.538 31.0093C177.538 31.3045 177.518 31.5997 177.544 31.8949C177.597 32.4987 177.392 32.7939 176.745 32.7469C176.137 32.7067 175.529 32.7067 174.921 32.7469C174.273 32.7939 174.101 32.4987 174.108 31.8949C174.128 29.748 174.114 27.6011 174.114 25.4542C174.114 20.8921 174.134 16.3299 174.101 11.7745C174.095 10.9627 174.339 10.6541 175.139 10.7279C175.793 10.7882 176.461 10.7815 177.121 10.7279C177.776 10.6742 178.053 10.956 178.232 11.5665C179.302 15.2967 180.406 19.0202 181.496 22.7438C181.648 23.2536 181.8 23.7568 182.045 24.2533C182.045 21.8246 182.045 19.4026 182.045 16.974C182.045 15.176 182.058 13.3779 182.038 11.5799C182.032 10.9694 182.23 10.6809 182.858 10.7279C183.36 10.7614 183.862 10.7346 184.365 10.7346C185.462 10.7413 185.468 10.7413 185.468 11.8349C185.468 17.0947 185.468 22.3546 185.468 27.6078C185.468 29.0033 185.435 30.3988 185.481 31.7942C185.508 32.5322 185.257 32.814 184.536 32.7469C183.671 32.6664 182.66 33.0555 181.972 32.5926C181.272 32.123 181.285 31.0227 181.014 30.1908C179.963 26.957 178.939 23.7166 177.908 20.4761C177.822 20.2077 177.723 19.9394 177.63 19.671C177.597 19.6777 177.571 19.6844 177.538 19.6911Z" fill="white"/>
<path d="M113.036 24.4276C113.036 20.1942 113.036 16.1285 113.036 12.0628C113.036 10.7411 113.036 10.7411 114.325 10.7411C114.801 10.7411 115.277 10.768 115.752 10.7344C116.314 10.7009 116.479 10.9625 116.479 11.4992C116.466 18.3358 116.466 25.179 116.479 32.0222C116.479 32.5992 116.241 32.7736 115.719 32.7535C115.032 32.7267 114.345 32.7065 113.657 32.7602C113.003 32.8139 112.732 32.5254 112.541 31.9216C111.305 27.9901 110.042 24.0653 108.78 20.1472C108.734 19.9996 108.681 19.852 108.536 19.7111C108.536 22.0257 108.536 24.3404 108.536 26.655C108.536 28.4262 108.516 30.1973 108.542 31.9685C108.549 32.5589 108.344 32.7937 107.762 32.7602C107.128 32.7267 106.494 32.7267 105.859 32.7602C105.258 32.7937 105.079 32.5187 105.092 31.9484C105.119 30.6066 105.099 29.2648 105.099 27.923C105.099 22.5557 105.099 17.1952 105.099 11.828C105.099 10.7545 105.106 10.7545 106.15 10.7478C106.203 10.7478 106.256 10.7411 106.308 10.7478C107.174 10.8082 108.205 10.4057 108.853 10.929C109.494 11.4456 109.474 12.5324 109.725 13.3778C110.776 16.9202 111.794 20.4692 112.831 24.0116C112.871 24.0988 112.924 24.186 113.036 24.4276Z" fill="white"/>
<path d="M119.222 21.7373C119.222 18.4364 119.222 15.1423 119.222 11.8414C119.222 10.7546 119.229 10.7479 120.26 10.7479C121.714 10.7412 123.168 10.7277 124.615 10.7546C127.503 10.8083 129.109 12.1635 129.519 15.0484C129.763 16.7659 129.723 18.5236 129.499 20.2546C129.386 21.1603 129.01 21.9654 128.408 22.6229C127.992 23.0724 127.926 23.4883 128.078 24.0653C128.752 26.6282 129.386 29.1977 130.034 31.7673C130.279 32.7334 130.265 32.7401 129.261 32.7468C128.6 32.7468 127.939 32.72 127.278 32.7535C126.717 32.7871 126.485 32.5321 126.36 32.0021C125.844 29.7881 125.309 27.5809 124.774 25.3669C124.595 24.6356 123.485 24.1928 122.857 24.5953C122.579 24.7765 122.652 25.0717 122.652 25.3266C122.646 27.4735 122.619 29.6204 122.665 31.7606C122.679 32.5455 122.401 32.7602 121.661 32.7535C119.229 32.7334 119.229 32.7602 119.229 30.2578C119.222 27.4198 119.222 24.5819 119.222 21.7373ZM122.646 17.6783C122.646 18.215 122.646 18.745 122.646 19.2818C122.646 21.2408 122.646 21.2408 124.569 21.0462C125.527 20.9523 126.161 20.2948 126.194 19.3153C126.221 18.5907 126.168 17.8729 126.208 17.1483C126.36 14.0554 125.21 14.3708 123.3 14.364C122.831 14.364 122.632 14.5519 122.646 15.0282C122.659 15.9138 122.652 16.7994 122.646 17.6783Z" fill="white"/>
<path d="M102.502 19.738C102.502 22.3679 102.528 24.9979 102.495 27.6211C102.456 30.6804 100.235 32.995 97.3471 33.0487C94.3732 33.1024 91.9874 30.781 91.9676 27.7016C91.9279 22.3344 91.961 16.9738 91.9478 11.6066C91.9478 10.9961 92.1328 10.7076 92.7672 10.7411C93.3752 10.7747 93.9832 10.768 94.5913 10.7411C95.1662 10.7143 95.3975 10.9491 95.3843 11.5395C95.3579 12.9887 95.3777 14.4378 95.3777 15.887C95.3777 19.7514 95.3711 23.6158 95.3843 27.4735C95.3843 28.7281 96.1575 29.5063 97.2942 29.4124C98.0278 29.352 98.5301 28.9562 98.7416 28.245C98.8869 27.7553 98.9266 27.2521 98.9266 26.7355C98.92 21.7708 98.92 16.8128 98.92 11.8481C98.92 10.7546 98.9266 10.7546 100.03 10.7479C102.502 10.7344 102.502 10.7344 102.502 13.2168C102.502 15.3905 102.502 17.5642 102.502 19.738Z" fill="white"/>
<path d="M84.3082 33.0555C81.4069 33.0622 79.3912 31.2843 78.8031 28.1981C78.4924 26.5745 78.5189 26.5209 80.1777 26.5276C80.7262 26.5343 81.3408 26.1921 81.7968 26.5343C82.2264 26.8563 82.0744 27.5339 82.2594 28.0304C82.7221 29.3252 83.601 29.9693 84.6056 29.6875C85.6365 29.399 86.2577 28.1042 85.9868 26.8697C85.7423 25.7694 85.0946 24.9509 84.2949 24.2129C82.9468 22.9651 81.5721 21.744 80.4354 20.2814C78.8824 18.2889 78.5123 16.0413 79.345 13.6865C80.1248 11.4725 81.7506 10.4594 84.0769 10.4795C86.9054 10.5064 88.6633 11.8951 89.2779 14.6928C89.4233 15.3369 89.3903 15.8199 88.5708 15.8535C88.3659 15.8602 88.1611 15.9407 87.9496 15.9742C87.4077 16.0615 86.8129 16.3164 86.3238 16.1822C85.7753 16.0346 85.9471 15.2564 85.696 14.8002C85.3259 14.1091 84.8435 13.6529 84.0108 13.7133C83.2111 13.7737 82.8873 14.3372 82.6692 15.0014C82.3321 16.0145 82.5767 16.9605 83.0591 17.8595C83.6407 18.9464 84.5395 19.738 85.4581 20.5096C86.8129 21.6434 88.0025 22.9248 88.8153 24.535C89.5489 25.9841 89.7273 27.5004 89.3506 29.0636C88.7294 31.6801 86.9583 33.0555 84.3082 33.0555Z" fill="white"/>
<path d="M144.421 33.0553C141.514 33.062 139.504 31.2976 138.91 28.2047C138.599 26.5811 138.625 26.5207 140.278 26.5341C140.826 26.5341 141.441 26.2054 141.897 26.5409C142.326 26.8562 142.135 27.5539 142.366 28.037C142.505 28.3255 142.617 28.6274 142.789 28.8957C143.199 29.5331 143.774 29.8752 144.54 29.7276C145.274 29.58 145.77 29.0903 145.994 28.3858C146.49 26.8495 145.796 25.662 144.791 24.6288C143.622 23.4279 142.379 22.3007 141.21 21.0998C140.106 19.9727 139.379 18.6309 139.115 17.0341C138.632 14.1493 140.066 11.3717 142.544 10.7344C145.578 9.96282 148.618 11.0631 149.391 14.7128C149.53 15.3569 149.504 15.8399 148.684 15.8735C148.453 15.8802 148.221 15.9674 147.983 16.0077C147.468 16.0949 146.9 16.3297 146.437 16.2089C145.922 16.068 146.067 15.3368 145.842 14.894C145.479 14.1761 145.003 13.6595 144.124 13.7333C143.291 13.8004 142.961 14.3975 142.756 15.0952C142.439 16.1754 142.736 17.1616 143.291 18.0875C143.873 19.067 144.712 19.8117 145.571 20.5296C146.933 21.6634 148.116 22.9448 148.929 24.5483C149.662 25.9974 149.841 27.5137 149.464 29.0769C148.843 31.68 147.071 33.0486 144.421 33.0553Z" fill="white"/>
<path d="M156.8 10.7344C158.095 10.7344 159.39 10.7613 160.679 10.721C161.353 10.7009 161.565 10.9759 161.525 11.62C161.485 12.2104 161.485 12.8008 161.525 13.3912C161.565 14.0151 161.34 14.25 160.712 14.2365C159.285 14.203 157.857 14.25 156.436 14.2164C155.815 14.203 155.59 14.4177 155.61 15.0483C155.643 16.417 155.637 17.7856 155.61 19.1476C155.597 19.7312 155.808 19.9728 156.397 19.9526C157.295 19.9258 158.194 19.9661 159.093 19.9392C159.681 19.9258 159.978 20.1204 159.945 20.7711C159.906 21.4152 159.912 22.0593 159.945 22.7033C159.978 23.3206 159.747 23.5822 159.126 23.5554C158.227 23.5218 157.328 23.5688 156.43 23.542C155.874 23.5218 155.603 23.6896 155.617 24.3068C155.643 25.7023 155.643 27.0978 155.617 28.4865C155.603 29.1038 155.861 29.2648 156.423 29.2581C157.877 29.2312 159.331 29.2648 160.778 29.2447C161.313 29.2379 161.558 29.4191 161.532 29.9894C161.499 30.6871 161.512 31.3848 161.532 32.0826C161.545 32.5656 161.34 32.7468 160.871 32.7468C158.174 32.7334 155.485 32.7334 152.788 32.7468C152.114 32.7535 152.094 32.3308 152.094 31.8478C152.094 28.8958 152.094 25.9505 152.094 22.9985C152.094 19.2683 152.094 15.5448 152.094 11.8146C152.094 10.7545 152.121 10.7344 153.158 10.7344C154.368 10.7344 155.584 10.7344 156.8 10.7344Z" fill="white"/>
<path d="M188.218 21.7373C188.218 18.4096 188.244 15.0819 188.198 11.7542C188.184 10.9223 188.462 10.7076 189.242 10.721C191.727 10.7613 194.212 10.7613 196.697 10.721C197.43 10.7076 197.708 10.9626 197.655 11.6939C197.615 12.2574 197.628 12.821 197.655 13.3845C197.681 13.9951 197.457 14.25 196.829 14.2366C195.375 14.203 193.921 14.25 192.467 14.2165C191.846 14.203 191.628 14.411 191.647 15.0484C191.687 16.417 191.681 17.7857 191.647 19.1543C191.634 19.738 191.826 19.9795 192.421 19.9594C193.372 19.9258 194.324 19.9661 195.276 19.946C195.857 19.9326 196.089 20.1808 196.069 20.7645C196.042 21.4354 196.049 22.1063 196.069 22.7772C196.089 23.3743 195.811 23.5823 195.249 23.5621C194.35 23.5353 193.452 23.5957 192.553 23.542C191.866 23.5018 191.628 23.7299 191.641 24.4477C191.681 26.863 191.628 29.2782 191.667 31.6935C191.681 32.4718 191.495 32.7804 190.656 32.7669C188.211 32.7334 188.211 32.7669 188.211 30.2779C188.218 27.4266 188.218 24.5819 188.218 21.7373Z" fill="white"/>
<path d="M60.7277 56.0272C60.4039 55.9735 59.9016 55.9265 59.4192 55.7924C58.5468 55.5441 57.952 55.0477 57.7868 54.048C57.5092 52.3573 57.1457 50.6868 56.8285 49.0028C56.6633 48.1038 56.8946 47.6945 57.7537 47.4329C58.2031 47.2987 58.6856 47.2115 59.1548 47.1914C61.4216 47.1042 63.6884 47.0169 65.9552 46.9901C67.5545 46.9767 68.3806 47.339 68.9226 49.0296C69.4446 50.6532 70.1452 52.2231 70.7334 53.8333C71.0902 54.7994 70.7928 55.3697 69.8147 55.6515C69.4116 55.7655 68.9886 55.846 68.5723 55.8595C66.0147 55.94 63.4505 55.7991 60.7277 56.0272Z" fill="white"/>
<path d="M49.3608 56.2218C48.3365 56.2218 47.1733 56.2419 46.0102 56.2151C44.4307 56.1815 43.9218 55.6448 43.9284 54.0816C43.9284 52.6861 43.9218 51.2907 43.935 49.8952C43.9416 48.4796 44.3976 47.9563 45.7789 47.8221C46.7239 47.7349 47.6756 47.6946 48.6206 47.6476C49.9358 47.5873 51.2575 47.5068 52.5727 47.4933C54.324 47.4732 54.8263 47.9093 55.1237 49.6268C55.3682 51.0491 55.6061 52.4781 55.8308 53.9072C56.0357 55.2087 55.5466 55.8394 54.2447 56.0406C52.6652 56.2889 51.0791 56.1547 49.3608 56.2218Z" fill="white"/>
<path d="M35.1121 56.5235C34.0679 56.5235 33.3013 56.5638 32.5413 56.5168C31.2526 56.4363 30.8032 55.8325 31.0477 54.5712C31.3187 53.1489 31.6029 51.7333 31.8804 50.311C32.1448 48.9423 32.6735 48.4123 34.0547 48.3184C36.1629 48.1775 38.2711 48.0903 40.3793 48.0232C40.7891 48.0098 41.2186 48.1372 41.6085 48.2781C42.0645 48.4459 42.3487 48.8081 42.2892 49.3382C42.1108 50.9953 42.276 52.6591 42.091 54.3163C41.939 55.6782 41.3971 56.3357 39.9828 56.3558C38.2579 56.3759 36.5528 56.6108 35.1121 56.5235Z" fill="white"/>
<path d="M27.1817 48.6137C28.0408 48.6137 28.7017 48.5734 29.3625 48.6204C30.2547 48.6875 30.5719 49.1437 30.3869 50.0293C30.0697 51.5187 29.7392 53.0081 29.4088 54.4975C29.0916 55.9064 28.3646 56.6041 26.9636 56.6645C24.8289 56.7517 22.6943 56.7316 20.5597 56.8121C18.9868 56.8658 18.6035 56.2016 19.1388 54.6786C19.608 53.3435 20.1698 52.0353 20.5861 50.68C20.9892 49.3651 21.9012 48.8283 23.1305 48.7948C24.5448 48.768 25.959 48.5331 27.1817 48.6137Z" fill="white"/>
<path d="M136.286 21.7307C136.286 25.0852 136.273 28.433 136.299 31.7875C136.306 32.5121 136.094 32.814 135.354 32.7536C134.7 32.6999 134.032 32.7268 133.371 32.7402C132.928 32.7469 132.743 32.5389 132.743 32.1096C132.743 31.9217 132.737 31.7338 132.737 31.546C132.737 25.0047 132.737 18.4634 132.737 11.9153C132.737 10.748 132.743 10.748 133.88 10.7413C134.382 10.7413 134.885 10.7748 135.387 10.7346C136.081 10.6809 136.306 10.9694 136.299 11.6671C136.273 15.0216 136.286 18.3761 136.286 21.7307Z" fill="white"/>
<path d="M167.948 21.7374C167.948 18.4097 167.962 15.0887 167.935 11.7611C167.929 11.0096 168.147 10.6675 168.927 10.7346C169.528 10.7882 170.143 10.7614 170.751 10.7413C171.292 10.7211 171.511 10.956 171.504 11.5061C171.484 12.6869 171.497 13.8677 171.497 15.0485C171.497 20.57 171.497 26.0983 171.497 31.6198C171.497 32.7402 171.491 32.7402 170.407 32.7402C167.948 32.7536 167.948 32.7536 167.948 30.2646C167.948 27.4199 167.948 24.582 167.948 21.7374Z" fill="white"/>
<path d="M63.3386 39.2815C64.8916 39.2815 65.308 39.5834 65.916 41.2271C66.2927 42.2536 66.709 43.2734 67.0857 44.3066C67.3831 45.1318 67.165 45.5813 66.3455 45.8295C65.916 45.957 65.4666 46.0241 65.0238 46.0509C62.8627 46.165 60.7017 46.2589 58.5406 46.3528C56.9082 46.4266 56.2341 45.8966 55.9103 44.2797C55.6988 43.2264 55.5204 42.1731 55.2891 41.1265C55.1503 40.5025 55.4014 40.1268 55.9434 39.939C56.3663 39.7914 56.8091 39.6773 57.2519 39.6505C59.2147 39.5029 61.1907 39.4023 63.3386 39.2815Z" fill="white"/>
<path d="M51.0526 40.0396C53.5441 40.0262 53.5639 40.0463 53.9472 42.5488C54.0662 43.3136 54.1984 44.0785 54.3173 44.8433C54.4693 45.7691 54.2314 46.2119 53.3194 46.4266C52.685 46.5809 52.0175 46.6346 51.3632 46.6681C49.5458 46.7554 47.7284 46.8426 45.911 46.8627C44.2323 46.8828 43.816 46.326 43.9812 44.6487C44.0737 43.7229 44.0671 42.7769 44.0473 41.8443C44.0341 41.1332 44.3645 40.7575 44.9924 40.5562C45.7061 40.3214 46.4529 40.3885 47.1865 40.2878C47.8341 40.1939 48.5016 40.2275 49.1625 40.1939C49.7969 40.147 50.4248 40.0866 51.0526 40.0396Z" fill="white"/>
<path d="M35.6343 47.3591C35.0263 47.3591 34.4183 47.3926 33.8169 47.3524C32.8718 47.292 32.5612 46.8559 32.7331 45.9167C32.9445 44.7895 33.1825 43.6624 33.3741 42.5286C33.4997 41.7571 33.9491 41.3813 34.6496 41.1868C35.3237 40.9989 36.011 41.0392 36.6917 40.9788C38.1589 40.8513 39.6326 40.7641 41.1064 40.7373C42.2497 40.7104 42.5272 41.0526 42.5206 42.2401C42.514 43.3874 42.5008 44.5413 42.3951 45.6886C42.3356 46.3192 42.0514 46.6681 41.5161 46.8895C41.0998 47.0572 40.6636 47.1847 40.2076 47.1847C38.6809 47.1981 37.1543 47.1914 35.6277 47.1914C35.6343 47.2383 35.6343 47.2987 35.6343 47.3591Z" fill="white"/>
<path d="M23.4083 47.9293C22.1593 47.9696 21.7826 47.4395 22.2055 46.2655C22.5624 45.2859 22.9788 44.3198 23.2695 43.3202C23.5669 42.287 24.2675 41.8107 25.2257 41.7234C27.0365 41.5624 28.8539 41.4417 30.678 41.3746C31.9402 41.3276 32.2046 41.6899 31.9468 42.9109C31.7486 43.8569 31.5437 44.7962 31.3322 45.7354C31.0414 47.0504 30.4929 47.567 29.1844 47.6475C27.2612 47.775 25.3381 47.8421 23.4083 47.9293Z" fill="white"/>
<path d="M127.734 44.1522C127.734 45.9167 127.708 47.6812 127.747 49.4457C127.761 50.1635 127.443 50.291 126.835 50.291C126.227 50.291 125.904 50.1434 125.91 49.4457C125.93 46.3058 125.917 43.166 125.923 40.0262C125.923 39.6438 125.831 39.201 126.419 39.0936C127.391 38.9192 127.966 39.0869 128.151 39.7109C128.659 41.3747 129.135 43.0453 129.631 44.7158C129.684 44.8835 129.743 45.058 129.889 45.2056C129.889 43.4948 129.882 41.784 129.889 40.0664C129.895 39.1876 130.675 38.7381 131.448 39.1473C131.719 39.2882 131.7 39.5364 131.7 39.7712C131.706 43.0453 131.7 46.3193 131.7 49.5933C131.7 49.9421 131.647 50.2977 131.21 50.2575C130.662 50.2038 129.942 50.6265 129.651 49.7476C129.188 48.3253 128.732 46.8962 128.276 45.4672C128.131 45.0177 127.985 44.5749 127.84 44.1321C127.807 44.1321 127.774 44.1455 127.734 44.1522Z" fill="white"/>
<path d="M56.7955 38.9862C56.6435 38.9795 56.2932 38.9795 55.9562 38.9459C55.1829 38.8587 54.7071 38.4629 54.5948 37.6377C54.489 36.8661 54.3238 36.108 54.1784 35.3432C53.9868 34.3435 54.2379 33.9477 55.2556 33.8269C56.4849 33.6793 57.7207 33.5854 58.9565 33.4848C59.8223 33.4177 60.6946 33.3439 61.5604 33.3305C62.4526 33.317 63.1201 33.6525 63.4042 34.6253C63.6554 35.4706 64.0056 36.2891 64.3427 37.1009C64.6335 37.7853 64.4022 38.1878 63.7479 38.3891C63.3976 38.4964 63.0275 38.5904 62.6641 38.6172C60.774 38.7514 58.8772 38.8587 56.7955 38.9862Z" fill="white"/>
<path d="M19.9586 42.0186C22.4039 41.9783 22.5162 42.1461 21.7892 44.0045C21.4852 44.776 21.1284 45.5341 20.8971 46.3258C20.5336 47.5871 19.6348 48.0634 18.4716 48.1439C16.7071 48.2647 14.9426 48.3318 13.178 48.3989C12.7551 48.419 12.3057 48.3855 12.0281 47.9963C11.7373 47.5804 12.0413 47.2382 12.2264 46.8894C12.7749 45.8495 13.3631 44.8297 13.8587 43.7629C14.2949 42.8237 15.002 42.3943 15.9669 42.3205C17.4671 42.2064 18.9673 42.0924 19.9586 42.0186Z" fill="white"/>
<path d="M44.0737 37.1143C44.0737 36.7655 44.0737 36.4166 44.0737 36.0677C44.0803 35.0882 44.3315 34.7326 45.2765 34.632C47.1865 34.4307 49.103 34.2496 51.0261 34.1422C52.3347 34.0684 52.6189 34.3771 52.8237 35.7122C52.9427 36.477 53.0418 37.2485 53.2004 38.0067C53.3128 38.5702 53.0616 38.8654 52.599 39.0667C51.9051 39.3753 51.1517 39.3552 50.4248 39.4223C48.8783 39.5631 47.3252 39.6369 45.7722 39.7242C44.4636 39.7913 44.0803 39.4088 44.0737 38.0737C44.0737 37.7584 44.0737 37.4364 44.0737 37.1143Z" fill="white"/>
<path d="M160.976 44.6754C160.976 43.7093 160.95 42.7499 160.983 41.7838C161.029 40.4956 161.756 39.4692 162.8 39.1203C163.924 38.7446 165.041 39.08 165.794 39.9992C166.217 40.5225 166.389 41.1397 166.396 41.7905C166.415 43.716 166.429 45.6482 166.396 47.5737C166.369 48.8887 165.589 49.942 164.505 50.2573C163.329 50.5995 162.219 50.2238 161.492 49.2241C161.095 48.6807 160.99 48.05 160.976 47.406C160.963 46.5002 160.97 45.5878 160.976 44.6754C160.97 44.6754 160.976 44.6754 160.976 44.6754ZM164.433 44.662C164.433 43.7562 164.439 42.8438 164.433 41.9381C164.433 41.4148 164.327 40.9452 163.679 40.9384C163.032 40.9317 162.8 41.3745 162.8 41.9381C162.787 43.7562 162.787 45.5744 162.8 47.3925C162.807 47.9494 163.018 48.4257 163.666 48.3989C164.261 48.3721 164.439 47.936 164.433 47.3925C164.433 46.4801 164.433 45.5744 164.433 44.662Z" fill="white"/>
<path d="M143.562 44.6823C143.562 45.6215 143.582 46.5541 143.555 47.4933C143.516 49.1371 142.472 50.291 140.971 50.3984C139.597 50.499 138.321 49.4658 138.209 47.8825C138.05 45.6484 137.984 43.3874 138.262 41.1533C138.42 39.8853 139.557 38.9796 140.813 38.9527C142.016 38.9326 143.139 39.7981 143.436 40.9923C143.476 41.1466 143.529 41.3076 143.529 41.4619C143.536 42.5354 143.536 43.6021 143.536 44.6755C143.542 44.6823 143.549 44.6823 143.562 44.6823ZM141.593 44.6353C141.593 43.7229 141.599 42.8104 141.593 41.898C141.593 41.3613 141.441 40.9185 140.8 40.9319C140.198 40.9453 139.967 41.368 139.96 41.898C139.94 43.7497 139.94 45.6014 139.96 47.4531C139.967 47.9898 140.244 48.4058 140.833 48.3856C141.388 48.3655 141.586 47.963 141.593 47.4464C141.599 46.5138 141.593 45.5746 141.593 44.6353Z" fill="white"/>
<path d="M172.833 44.689C172.833 43.6961 172.826 42.7031 172.833 41.7169C172.846 40.1738 173.949 39.0132 175.45 38.9729C176.818 38.9394 178.014 40.0531 178.153 41.5022C178.166 41.6364 178.159 41.7706 178.166 41.9048C178.179 42.9648 177.551 43.3942 176.547 43.0185C176.302 42.9312 176.236 42.7501 176.223 42.5287C176.203 42.2603 176.21 41.992 176.196 41.7236C176.17 41.2137 175.919 40.9252 175.397 40.9387C174.908 40.9521 174.683 41.2473 174.67 41.7169C174.657 42.6562 174.657 43.5954 174.657 44.528C174.657 45.4941 174.657 46.4602 174.663 47.4196C174.663 47.9563 174.815 48.4058 175.45 48.3991C176.084 48.3857 176.203 47.9161 176.203 47.3927C176.203 47.017 176.203 46.6413 176.203 46.2656C176.203 45.957 176.17 45.6618 175.78 45.6149C175.43 45.5746 175.403 45.313 175.384 45.0312C175.284 43.8437 175.357 43.743 176.54 43.7497C178.324 43.7565 178.166 43.5485 178.172 45.3666C178.179 46.118 178.186 46.8694 178.166 47.6141C178.126 49.2042 176.943 50.4185 175.463 50.3984C173.943 50.3783 172.846 49.2042 172.839 47.5873C172.826 46.6212 172.833 45.6551 172.833 44.689Z" fill="white"/>
<path d="M114.147 44.6486C114.147 43.0652 114.18 41.4819 114.133 39.9053C114.113 39.1673 114.477 39.0801 115.059 39.0801C115.647 39.0801 116.023 39.1874 115.99 39.912C115.951 40.9318 116.017 41.9515 115.971 42.9646C115.938 43.6489 116.255 43.7496 116.83 43.763C117.444 43.7764 117.682 43.5751 117.656 42.9311C117.616 41.9113 117.676 40.8915 117.636 39.8785C117.61 39.127 118.039 39.0801 118.601 39.0801C119.143 39.0801 119.5 39.1539 119.493 39.8583C119.467 43.072 119.467 46.2923 119.493 49.5059C119.5 50.197 119.163 50.2976 118.607 50.2909C118.052 50.2842 117.61 50.264 117.636 49.4992C117.669 48.4526 117.61 47.406 117.656 46.3661C117.689 45.6415 117.292 45.6281 116.757 45.608C116.175 45.5878 115.951 45.7891 115.971 46.3929C116.004 47.4127 115.951 48.4325 115.99 49.4455C116.017 50.1634 115.667 50.2909 115.065 50.2842C114.49 50.2775 114.107 50.2104 114.127 49.4657C114.173 47.8622 114.147 46.252 114.147 44.6486Z" fill="white"/>
<path d="M35.6016 40.4152C34.1873 40.4287 33.8635 40.0529 34.108 38.7916C34.2468 38.0805 34.4253 37.376 34.5244 36.6649C34.6235 35.9403 35.0399 35.6049 35.6809 35.4103C36.4277 35.1889 37.2009 35.256 37.9609 35.1755C39.1373 35.048 40.3269 34.9608 41.5099 34.9339C42.5937 34.9071 42.8646 35.2828 42.7655 36.3563C42.6994 37.0473 42.6598 37.7517 42.6862 38.4428C42.7193 39.3015 42.3095 39.7242 41.5363 39.9188C40.3731 40.214 39.1704 40.0999 37.994 40.2408C37.1679 40.3347 36.3154 40.3012 35.6016 40.4152Z" fill="white"/>
<path d="M25.7345 41.0325C24.5185 41.0527 24.2739 40.7038 24.6837 39.5498C24.9546 38.7917 25.2653 38.0537 25.5098 37.2889C25.7477 36.5576 26.2632 36.1685 26.9571 36.0947C28.715 35.9001 30.473 35.7391 32.2375 35.6318C33.242 35.5714 33.4998 35.9605 33.2883 36.9669C33.1363 37.6981 32.9248 38.4227 32.8125 39.1607C32.6803 40.0061 32.1714 40.4019 31.4114 40.583C30.3474 40.838 29.2569 40.7306 28.1863 40.8782C27.3734 40.999 26.5474 40.9923 25.7345 41.0325Z" fill="white"/>
<path d="M102.27 44.6352C102.343 43.5416 102.171 42.4346 102.37 41.3478C102.641 39.8785 103.791 38.8923 105.119 38.9795C106.56 39.0734 107.577 40.1133 107.703 41.6363C107.716 41.7704 107.723 41.9046 107.71 42.0388C107.676 42.3675 107.842 42.8238 107.439 42.9714C106.969 43.1458 106.427 43.1525 105.965 42.9512C105.621 42.8036 105.76 42.381 105.747 42.0723C105.727 41.5088 105.714 40.9385 104.96 40.9452C104.247 40.9519 104.114 41.5155 104.108 42.0723C104.081 43.8167 104.081 45.5543 104.108 47.2987C104.114 47.8488 104.247 48.4325 104.967 48.4057C105.681 48.3788 105.747 47.822 105.747 47.245C105.747 46.6479 105.581 45.9703 106.586 46.0038C107.643 46.0441 107.703 46.0508 107.71 47.1242C107.716 48.9021 107.022 49.9689 105.634 50.3043C104.141 50.6666 102.733 49.7743 102.403 48.2514C102.152 47.0505 102.35 45.8361 102.27 44.6352Z" fill="white"/>
<path d="M17.414 41.6095C16.9382 41.5357 16.4756 41.7169 15.9931 41.5961C15.4711 41.4619 15.2464 41.1802 15.5107 40.6703C16.046 39.6237 16.5813 38.5838 17.1629 37.564C17.4801 37.0071 18.0683 36.8059 18.6433 36.7522C20.269 36.5912 21.8948 36.4637 23.5271 36.3899C24.492 36.3497 24.6638 36.6583 24.3202 37.5573C24.0228 38.3288 23.6857 39.0869 23.4214 39.8719C23.1372 40.7038 22.5623 41.16 21.7362 41.2473C20.3021 41.3949 18.8547 41.4888 17.414 41.6095Z" fill="white"/>
<path d="M56.1148 33.183C53.7687 33.2367 53.7687 33.2367 53.3722 31.2642C52.9624 29.2582 53.1078 29.0905 55.1499 28.9496C56.5444 28.8557 57.9388 28.7081 59.3267 28.5538C60.6418 28.4062 61.1044 28.6678 61.5671 29.8889C61.7653 30.4122 61.9636 30.9422 62.1817 31.4588C62.4724 32.1431 62.142 32.4651 61.5472 32.6463C60.5757 32.9415 59.558 32.8543 58.5601 32.9884C57.6216 33.1293 56.67 33.1495 56.1148 33.183Z" fill="white"/>
<path d="M205.09 46.9699C205.605 46.8894 205.843 47.0973 205.995 47.6139C206.233 48.4593 206.696 48.741 207.224 48.5062C207.74 48.2781 207.945 47.4529 207.601 46.8088C207.191 46.0373 206.484 45.5341 205.87 44.9437C204.878 43.9843 204.112 42.9377 204.25 41.4416C204.376 40.0596 205.275 39.1136 206.63 38.966C207.965 38.8251 209.114 39.61 209.465 40.8982C209.57 41.2873 209.656 41.6966 209.108 41.7569C208.632 41.8039 208.031 42.3742 207.713 41.5087C207.542 41.0391 207.297 40.6634 206.735 40.8043C206.2 40.9384 206.22 41.4081 206.207 41.8442C206.187 42.4278 206.464 42.8773 206.848 43.2665C207.39 43.8166 207.991 44.3131 208.5 44.8901C209.293 45.7958 209.861 46.7954 209.603 48.097C209.299 49.6535 208.202 50.5458 206.755 50.3915C205.275 50.2305 204.105 48.9826 204.105 47.5603C204.112 46.8088 204.706 47.0504 205.09 46.9699Z" fill="white"/>
<path d="M91.0226 44.6823C91.0226 43.1258 91.0424 41.576 91.0094 40.0195C90.9962 39.3419 91.201 39.04 91.9148 39.0668C92.9391 39.1138 93.9767 39.1138 95.0011 39.0668C95.7479 39.0333 95.8536 39.3956 95.8734 40.0396C95.8866 40.7374 95.6686 41.0326 94.968 40.9521C94.5781 40.9118 94.175 40.9454 93.7784 40.9454C93.6463 40.9454 93.4877 40.9051 93.3885 40.9655C92.5228 41.5022 93.1308 42.361 92.9788 43.0587C92.8995 43.4344 93.0383 43.7565 93.5207 43.7363C93.7322 43.7296 93.9437 43.7632 94.1551 43.7363C94.9218 43.629 95.0738 44.0181 95.0804 44.7159C95.087 45.4337 94.8425 45.6484 94.1618 45.6283C92.9656 45.6014 92.9656 45.635 92.9656 46.856C92.9722 48.6339 92.8268 48.3857 94.4856 48.4058C94.6178 48.4058 94.7499 48.4058 94.8821 48.4058C95.7479 48.4125 96.2171 49.2579 95.7875 50.0227C95.6619 50.2508 95.4505 50.2642 95.2456 50.2642C94.056 50.2709 92.873 50.2575 91.6835 50.2709C91.0689 50.2776 91.0226 49.8885 91.0226 49.4189C91.0292 47.8423 91.0226 46.2656 91.0226 44.6823Z" fill="white"/>
<path d="M195.236 39.0869C195.765 39.0869 196.293 39.1205 196.822 39.0802C197.569 39.0198 197.694 39.4022 197.694 40.053C197.694 40.677 197.556 41.0191 196.855 40.9654C196.333 40.9185 195.798 40.9722 195.269 40.952C194.826 40.9386 194.635 41.1332 194.661 41.576C194.674 41.7907 194.661 42.0053 194.661 42.22C194.661 43.6759 194.661 43.7162 196.122 43.7296C196.895 43.7363 196.862 44.1992 196.875 44.7359C196.895 45.3129 196.749 45.6215 196.088 45.6282C194.661 45.6416 194.661 45.6685 194.661 47.1713C194.661 48.4058 194.661 48.4058 195.857 48.4058C196.095 48.4058 196.333 48.4058 196.571 48.4058C197.681 48.4125 197.78 48.5332 197.681 49.6671C197.648 50.0562 197.503 50.2709 197.106 50.2709C195.864 50.2709 194.621 50.2709 193.379 50.2709C192.976 50.2709 192.824 50.0428 192.824 49.6604C192.824 46.3327 192.83 43.005 192.824 39.6773C192.824 39.2681 193.029 39.0936 193.412 39.0936C194.02 39.0936 194.628 39.0936 195.236 39.0936V39.0869Z" fill="white"/>
<path d="M44.0869 32.0357C44.0869 30.1169 44.2918 29.9022 46.1753 29.7747C47.649 29.6741 49.1162 29.5131 50.5899 29.446C51.6473 29.399 51.8192 29.5869 52.0042 30.6335C52.0967 31.1635 52.1298 31.7002 52.262 32.2168C52.4602 32.9816 52.0901 33.3037 51.4491 33.4982C50.7816 33.7062 50.0877 33.6592 49.407 33.7263C48.1183 33.8404 46.8362 33.9544 45.5408 34.0014C44.272 34.0484 44.0935 33.827 44.0869 32.5254C44.0869 32.3577 44.0869 32.1967 44.0869 32.0357Z" fill="white"/>
<path d="M36.4342 34.7931C35.119 34.8132 34.9472 34.6053 35.1917 33.3037C35.2644 32.9079 35.3834 32.5187 35.4098 32.1229C35.4759 31.1769 36.0244 30.7408 36.8902 30.6603C38.5424 30.5127 40.2012 30.3517 41.86 30.2645C42.805 30.2175 43.0363 30.5127 42.9702 31.4654C42.9372 31.9753 42.8381 32.4785 42.8645 32.9884C42.9042 33.8337 42.4812 34.2295 41.7146 34.3235C40.7695 34.4375 39.8311 34.5382 38.886 34.6187C38.0665 34.6925 37.2537 34.7327 36.4342 34.7931Z" fill="white"/>
<path d="M28.7215 35.4372C26.197 35.4908 26.263 35.4707 26.8314 33.5721C27.2808 32.0692 28.0738 31.3446 29.6335 31.3245C30.8958 31.3044 32.1515 31.0427 33.4203 31.0562C34.3654 31.0629 34.5042 31.2373 34.3257 32.1497C34.2266 32.6462 34.1076 33.1427 34.0019 33.6391C33.7706 34.6925 33.4798 34.9944 32.429 35.1017C31.0081 35.2493 29.5873 35.3567 28.7215 35.4372Z" fill="white"/>
<path d="M58.3816 24.6154C59.2011 24.5685 59.7563 24.8771 59.981 25.7291C60.0669 26.0646 60.2255 26.3799 60.3444 26.7087C60.6881 27.6748 60.5625 27.9767 59.5382 28.1109C57.734 28.3457 55.9232 28.5201 54.1124 28.6409C53.055 28.708 52.8237 28.4396 52.599 27.3326C52.1892 25.3065 52.1892 25.3065 54.2181 25.0851C55.606 24.9241 56.9938 24.7697 58.3816 24.6154Z" fill="white"/>
<path d="M18.9935 36.2221C18.2203 36.2288 18.0154 35.8867 18.4516 35.0749C18.7556 34.5113 19.0662 33.9478 19.324 33.3641C19.6214 32.6865 20.117 32.2839 20.8175 32.1967C22.331 32.0089 23.851 31.8344 25.371 31.7271C26.2698 31.66 26.4614 31.9954 26.1508 32.8475C25.9856 33.297 25.7477 33.7264 25.6353 34.1893C25.3578 35.2963 24.6176 35.7525 23.5734 35.8464C22.0996 35.9739 20.6259 36.0879 18.9935 36.2221Z" fill="white"/>
<path d="M81.1554 45.6013C81.1554 44.3132 81.1356 43.0251 81.1621 41.7436C81.1753 41.1599 81.0034 40.9251 80.402 40.9385C79.5231 40.9587 79.0671 40.1469 79.4636 39.3485C79.6024 39.0734 79.8469 39.0869 80.0782 39.0869C81.4 39.0801 82.7151 39.0936 84.0369 39.0801C84.777 39.0734 84.7044 39.59 84.7176 40.0731C84.7308 40.5763 84.6647 41.0325 84.0104 40.9385C83.1447 40.8111 82.9398 41.2069 82.9596 42.0254C83.0059 44.434 82.9795 46.8492 82.9729 49.2578C82.9729 50.1702 82.2723 50.5929 81.4396 50.2171C81.1158 50.0695 81.1621 49.7878 81.1621 49.5328C81.1488 48.2313 81.1554 46.9163 81.1554 45.6013Z" fill="white"/>
<path d="M49.6121 25.5413C50.1804 25.6486 50.8744 25.3199 51.1255 25.9103C51.4493 26.6617 51.6079 27.507 51.4956 28.3389C51.4361 28.7616 50.9867 28.8824 50.6232 28.9226C48.8389 29.1239 47.0545 29.3252 45.2701 29.4526C44.3251 29.5197 44.1136 29.2312 44.0938 28.2785C44.0607 26.1719 44.1599 26.0646 46.2879 25.8901C46.8695 25.8432 47.4444 25.7761 48.0194 25.7157C48.5745 25.662 49.123 25.6016 49.6121 25.5413Z" fill="white"/>
<path d="M149.992 44.6083C149.992 43.0518 150.019 41.4953 149.979 39.9388C149.966 39.2545 150.237 39.0667 150.865 39.0667C151.492 39.0734 151.849 39.1874 151.836 39.9455C151.803 42.4681 151.849 44.9907 151.81 47.5133C151.796 48.2312 152.034 48.4996 152.722 48.4123C152.979 48.3788 153.25 48.4056 153.515 48.4056C154.539 48.4123 154.552 48.4459 154.546 49.5059C154.546 50.0426 154.374 50.2909 153.812 50.2775C152.781 50.2573 151.75 50.2573 150.719 50.2775C150.171 50.2909 149.972 50.0628 149.979 49.5126C150.005 47.8823 149.992 46.2453 149.992 44.6083Z" fill="white"/>
<path d="M37.0357 30.2712C36.0708 30.2779 35.8659 30.043 35.9981 29.1306C36.3087 26.9904 36.421 26.8965 38.5491 26.6952C39.7519 26.5879 40.948 26.3598 42.164 26.3799C43.0232 26.3933 43.1884 26.5879 43.0893 27.4466C43.0628 27.715 43.0298 27.9767 43.0166 28.245C42.9703 29.4795 42.8051 29.6741 41.6155 29.8082C40.0757 29.9692 38.5292 30.1168 37.0357 30.2712Z" fill="white"/>
<path d="M29.8914 30.9286C27.9154 30.9755 27.9418 30.9152 28.378 29.3989C28.7679 28.0437 29.5147 27.5003 30.8761 27.4734C32.0789 27.4466 33.2817 27.1782 34.4977 27.1782C35.1453 27.1782 35.4031 27.3929 35.2511 28.1041C34.7885 30.3449 34.8083 30.365 32.5745 30.6669C31.5502 30.8011 30.5258 30.8682 29.8914 30.9286Z" fill="white"/>
<path d="M21.5514 31.7272C20.4807 31.7339 20.4146 31.5125 20.7451 30.6336C21.4192 28.849 22.6286 28.0506 24.5055 28.1311C25.3117 28.1647 26.1312 27.9365 26.9441 27.8762C27.7966 27.8158 27.909 28.0909 27.7107 28.9228C27.2811 30.7007 26.2634 31.5192 24.4262 31.4521C23.4348 31.4118 22.4369 31.6332 21.5514 31.7272Z" fill="white"/>
<path d="M186.42 44.7694C186.42 46.3259 186.387 47.8757 186.433 49.4322C186.453 50.2104 186.063 50.2842 185.455 50.2976C184.821 50.3043 184.563 50.1098 184.563 49.4255C184.59 46.2655 184.596 43.1055 184.563 39.9389C184.556 39.1606 184.933 39.0868 185.541 39.0734C186.176 39.0667 186.447 39.2613 186.433 39.9456C186.394 41.549 186.42 43.1592 186.42 44.7694Z" fill="white"/>
</svg>
