<svg width="135" height="130" viewBox="0 0 135 130" fill="none" xmlns="http://www.w3.org/2000/svg">
<path d="M134.896 27.6597C134.364 30.8573 133.912 34.0714 132.741 37.1205C128.431 48.3665 121.079 56.7186 109.658 61.0777C105.193 62.7805 100.59 63.1236 96.0294 61.3219C94.7326 60.8104 95.1022 61.7212 95.0989 62.2657C95.0857 73.1124 95.0923 83.9592 95.0824 94.8026C95.0824 95.324 95.0791 95.8685 94.9504 96.3668C94.6798 97.4194 93.9637 98.02 92.8583 98.02C91.7528 98.02 91.0334 97.4128 90.7694 96.3635C90.6341 95.8223 90.644 95.2349 90.644 94.6673C90.6374 69.5056 90.6407 44.344 90.6374 19.1823C90.6374 15.9814 89.1756 13.853 86.4861 13.0478C85.7569 12.83 85.0111 12.83 84.2686 12.83C81.5462 12.8201 78.8238 12.8069 76.1014 12.83C69.1485 12.8828 69.5082 13.1237 69.5577 6.35229C69.561 6.0454 69.528 5.73521 69.5643 5.43162C69.6468 4.71885 69.4158 4.43176 68.6337 4.43836C64.9016 4.47465 61.1694 4.47135 57.4372 4.44166C56.698 4.43506 56.4274 4.65615 56.4505 5.41182C56.4967 6.94627 56.4802 8.48403 56.4571 10.0218C56.4274 12.0248 55.6717 12.8036 53.6522 12.8201C49.7451 12.8465 45.8348 12.8201 41.9277 12.83C37.6115 12.8399 35.3939 15.0805 35.3741 19.4265C35.3675 20.8322 35.4071 22.238 35.3477 23.6404C35.2883 25.0726 34.4139 25.9108 33.1269 25.8811C31.9092 25.8514 31.0513 25.0297 31.0315 23.6569C30.9952 21.2447 30.7312 18.8028 31.2459 16.4335C32.2755 11.6849 36.1463 8.55002 41.0499 8.43123C44.297 8.35533 47.5507 8.36523 50.7978 8.43453C51.8736 8.45763 52.1475 8.10454 52.098 7.09477C52.0221 5.56032 52.0485 4.02257 52.0947 2.48482C52.1409 0.874471 52.9461 0.029699 54.5498 0.0230992C60.2157 -0.00659982 65.8783 -0.00989964 71.5443 0.0263992C73.1216 0.0362989 73.94 0.91407 73.9895 2.52772C74.039 4.15127 74.0455 5.77811 73.9861 7.40166C73.9565 8.23653 74.2535 8.43453 75.0421 8.42463C78.1143 8.38503 81.1898 8.39823 84.262 8.41143C90.7826 8.43453 95.0527 12.7046 95.0824 19.2285C95.0923 21.4559 95.0857 23.6833 95.0857 26.1682C95.6071 25.7062 95.9602 25.4191 96.2835 25.099C99.1182 22.3073 102.303 19.9941 105.8 18.1065C107.196 17.3541 108.331 17.5356 109.054 18.618C109.813 19.7499 109.414 21.1028 107.985 21.9113C106.111 22.9706 104.319 24.142 102.613 25.4653C99.9596 27.5244 97.6068 29.8673 95.5971 32.5534C95.3002 32.9494 95.0725 33.3256 95.0758 33.8536C95.0923 39.0773 95.089 44.3044 95.0956 49.5314C95.0956 49.6436 95.1616 49.7558 95.2507 50.0396C96.3099 48.977 97.2801 47.987 98.2701 47.0202C98.6628 46.6374 98.5307 46.215 98.4417 45.7926C98.0721 44.0338 97.6761 42.2815 97.3197 40.5194C97.2174 40.0079 97.1316 39.4667 97.1877 38.9552C97.3065 37.8564 97.983 37.2129 99.0785 37.0974C100.243 36.9753 101.065 37.5363 101.382 38.6318C101.758 39.9353 101.999 41.2751 102.306 42.6214C102.953 42.6511 103.177 42.0835 103.527 41.7436C105.038 40.2752 106.497 38.7506 108.021 37.2954C108.562 36.7806 108.718 36.2889 108.546 35.5629C108.114 33.7282 107.751 31.877 107.368 30.0323C107.035 28.4187 107.675 27.234 109.015 26.9535C110.265 26.6928 111.324 27.5244 111.678 29.082C111.938 30.2303 112.169 31.382 112.78 32.7943C113.456 32.0255 114.103 31.2269 114.812 30.491C116.093 29.1645 117.409 27.8742 118.716 26.5707C120.175 25.1155 121.445 24.9208 122.471 25.9801C123.461 27.003 123.23 28.3032 121.795 29.7419C120.089 31.4513 118.376 33.1573 116.674 34.8667C116.373 35.167 116.096 35.4903 115.674 35.949C116.994 36.2295 118.135 36.4506 119.267 36.7146C120.924 37.1007 121.709 38.1204 121.435 39.4634C121.168 40.7702 119.98 41.384 118.31 41.0441C116.505 40.6778 114.71 40.2752 112.908 39.8891C112.397 39.7802 111.909 39.6185 111.443 40.0871C109.529 42.0142 107.592 43.915 105.47 46.017C106.87 46.3338 108.034 46.5846 109.196 46.8618C110.803 47.2446 111.595 48.2213 111.351 49.4885C111.09 50.8316 109.942 51.4684 108.298 51.1483C106.361 50.7689 104.424 50.3894 102.504 49.9472C101.956 49.8218 101.61 49.9175 101.227 50.3069C99.5339 52.0294 97.8345 53.7454 96.102 55.4283C95.5741 55.9398 95.584 56.1873 96.2506 56.547C99.4911 58.2959 102.9 58.3916 106.348 57.4775C113.397 55.6098 118.782 51.2902 123.118 45.6144C128.735 38.2656 131.342 30.0092 130.157 20.7101C129.896 18.6708 129.896 18.6543 127.903 18.321C124.442 17.7435 120.996 17.9085 117.561 18.5487C117 18.6543 116.436 18.7566 115.868 18.7797C114.674 18.8292 113.78 18.123 113.578 17.0439C113.37 15.9253 114.014 14.8165 115.208 14.5426C116.746 14.1895 118.304 13.8826 119.871 13.7375C123.828 13.3712 127.755 13.6187 131.642 14.4964C132.899 14.7802 133.665 15.4171 133.886 16.7239C134.189 18.5322 134.552 20.3306 134.892 22.1357C134.896 23.9704 134.896 25.8151 134.896 27.6597Z" fill="#59B73F"/>
<path d="M29.4985 81.3692C27.3206 79.2375 25.3736 77.3466 23.4531 75.4294C23.034 75.0103 22.6083 75.0862 22.1265 75.1918C20.1103 75.6208 18.1039 76.0993 16.0712 76.4326C14.4213 76.7032 13.2168 75.5416 13.4379 74.0236C13.5864 72.9908 14.2431 72.3968 15.2297 72.1658C16.4936 71.8688 17.7673 71.5982 19.2952 71.2583C17.4803 69.4533 15.8105 67.7934 14.1408 66.1336C13.5798 65.5759 12.9924 65.0413 12.4776 64.4441C11.5702 63.3947 11.5932 62.0945 12.4809 61.2564C13.362 60.4248 14.5434 60.4149 15.5663 61.3389C16.5431 62.2199 17.4473 63.1802 18.3746 64.1141C19.6417 65.3878 20.8989 66.6682 22.2618 68.0442C22.8624 66.8596 22.8987 65.6815 23.166 64.5695C23.5686 62.8931 24.5289 62.045 25.8422 62.2991C27.2447 62.5697 27.8552 63.7445 27.4922 65.4769C27.116 67.2787 26.7563 69.0837 26.3438 70.8788C26.1821 71.585 26.2976 72.0965 26.852 72.6212C28.1752 73.8719 29.4292 75.1984 30.726 76.5151C31.1253 76.063 30.9933 75.6967 30.9933 75.37C31.0032 70.5423 30.9834 65.7112 31.0164 60.8835C31.023 60.0882 30.7656 59.6295 30.0957 59.1906C23.4927 54.8645 16.3055 52.8218 8.38908 53.4587C5.15848 53.7194 5.07928 53.6732 4.67339 56.8675C3.94412 62.5763 4.93737 68.0475 7.21099 73.301C8.55735 76.4194 10.3393 79.2804 12.5106 81.8972C12.7911 82.2338 13.0683 82.5803 13.2993 82.9499C13.9725 84.019 13.8273 85.1872 12.9561 85.9198C12.0387 86.6919 10.7914 86.6325 9.8905 85.6492C8.40555 84.0289 7.10872 82.2569 5.95375 80.3858C0.56173 71.6312 -1.34231 62.2661 0.961015 52.1421C1.2811 50.7363 2.06977 50.0895 3.42272 49.8024C12.6591 47.8324 21.3708 49.2547 29.6206 53.7689C30.99 54.518 30.9999 54.5114 31.0032 52.9967C31.0065 46.4563 31.0032 39.9127 31.0032 33.3723C31.0032 32.9763 30.99 32.5803 31.0131 32.1876C31.0923 30.7489 31.9107 29.8381 33.135 29.8018C34.4054 29.7655 35.2898 30.7126 35.3657 32.2107C35.3888 32.6925 35.3756 33.1776 35.3756 33.6594C35.3756 61.6688 35.3756 89.6816 35.3723 117.691C35.3723 118.661 35.3855 119.628 35.6561 120.562C36.3788 123.067 38.5765 124.637 41.4408 124.644C48.552 124.66 55.6666 124.651 62.7779 124.651C69.8463 124.651 76.9146 124.654 83.983 124.651C88.428 124.647 90.6356 122.459 90.6389 118.054C90.6422 113.619 90.6389 109.184 90.6389 104.752C90.6389 104.181 90.6092 103.61 90.827 103.063C91.19 102.145 91.873 101.657 92.8432 101.65C93.8134 101.644 94.5097 102.116 94.876 103.03C95.0772 103.531 95.0872 104.053 95.0872 104.584C95.0839 109.151 95.1003 113.715 95.0806 118.282C95.0542 124.763 90.7247 129.089 84.2371 129.096C70.1004 129.112 55.9636 129.109 41.8269 129.096C35.2898 129.089 31.0362 124.845 31.0065 118.295C30.9768 111.887 30.9702 105.475 31.0263 99.0665C31.0362 97.9842 30.6864 97.6509 29.6635 97.5222C24.7004 96.882 20.4205 94.615 16.4342 91.7309C15.3552 90.9488 15.1308 89.7146 15.7676 88.7181C16.4375 87.672 17.7179 87.3552 18.886 88.1274C21.45 89.8301 24.0536 91.4306 27.0103 92.3876C28.0597 92.7274 29.1355 92.9023 30.2014 93.1564C30.7722 93.2917 31.0098 93.1762 31.0032 92.5558C30.9834 90.4934 30.9867 88.4277 31.0032 86.3652C31.0098 85.768 30.8053 85.603 30.2146 85.7449C28.9771 86.0419 27.7297 86.286 26.4857 86.5368C24.9776 86.8404 23.8095 86.1706 23.5455 84.8671C23.2947 83.6362 24.0702 82.5836 25.532 82.2338C26.7299 81.9368 27.931 81.7058 29.4985 81.3692Z" fill="#59B73F"/>
<path d="M86.4783 74.4719C86.4783 87.3382 86.4849 100.201 86.475 113.067C86.4717 116.842 84.6336 119.436 81.3634 120.258C80.6507 120.436 79.8851 120.462 79.1459 120.466C68.4311 120.479 57.7197 120.486 47.0049 120.469C42.2861 120.462 39.5538 117.73 39.5538 113.025C39.5472 87.2953 39.5472 61.5627 39.5538 35.8334C39.5538 31.2037 42.3125 28.4351 46.9159 28.4318C57.6735 28.4186 68.4311 28.4186 79.1888 28.4318C83.7393 28.4384 86.4651 31.1674 86.4717 35.7443C86.4882 48.6535 86.4783 61.5627 86.4783 74.4719ZM43.9889 74.4323C43.9889 87.2062 43.9889 99.9768 43.9889 112.751C43.9889 115.374 44.7049 116.084 47.3712 116.084C57.8187 116.087 68.2662 116.087 78.7103 116.084C81.3799 116.084 82.0795 115.384 82.0795 112.721C82.0828 87.2194 82.0828 61.7178 82.0795 36.2129C82.0795 33.5268 81.3997 32.8404 78.7466 32.8404C68.2562 32.8371 57.7659 32.8371 47.2755 32.8404C44.695 32.8404 43.9856 33.5499 43.9856 36.1106C43.9889 48.8845 43.9889 61.6584 43.9889 74.4323Z" fill="#59B73F"/>
<path d="M67.4028 81.9299C68.1914 85.8667 68.9372 89.5923 69.683 93.3212C70.7159 98.4789 71.752 103.633 72.7684 108.794C73.0687 110.316 72.5968 111.302 71.455 111.708C70.2539 112.137 69.2111 111.622 68.5214 110.187C61.5092 95.6146 54.5035 81.039 47.4912 66.4667C47.0259 65.4998 46.8213 64.5362 47.544 63.6221C48.3195 62.6388 49.3524 62.7081 50.4248 63.015C52.6588 63.6518 54.9028 64.2524 57.1236 64.9289C58.0904 65.2226 58.3808 65.1533 58.0706 64.0313C56.4867 58.2862 54.9655 52.5246 53.431 46.7663C52.8205 44.4729 53.695 43.3047 56.0709 43.2915C60.4169 43.2684 64.7629 43.2717 69.1055 43.2915C70.9699 43.3014 71.6266 43.8327 71.983 45.6674C74.316 57.6724 76.6424 69.6774 78.9458 81.6858C79.3055 83.5601 77.8997 84.8041 75.9957 84.3389C74.5932 83.9957 73.204 83.5832 71.8114 83.1905C70.4288 82.7978 69.0395 82.3985 67.4028 81.9299ZM53.3551 68.4631C57.183 76.4191 60.8888 84.1277 64.5945 91.8329C64.7628 91.4567 64.7364 91.1565 64.6803 90.8628C63.9478 87.2131 63.1855 83.5667 62.476 79.9137C61.9843 77.3761 63.2746 76.2046 65.7462 76.8844C68.0264 77.5147 70.3 78.1582 72.577 78.7917C73.9794 79.1811 73.986 79.1745 73.7088 77.7424C72.9367 73.7429 72.1579 69.7434 71.3857 65.744C70.2967 60.1111 69.221 54.4715 68.1155 48.8419C68.0198 48.3502 68.1353 47.6771 67.2179 47.6903C64.2843 47.7332 61.3474 47.7068 58.2719 47.7068C58.4171 48.2776 58.5293 48.733 58.6514 49.1884C60.2717 55.2371 61.9018 61.2825 63.5089 67.3345C64.1589 69.783 62.8225 71.0898 60.3806 70.4199C58.1465 69.8061 55.9191 69.1759 53.3551 68.4631Z" fill="#59B73F"/>
</svg>
