<svg width="74" height="129" viewBox="0 0 74 129" fill="none" xmlns="http://www.w3.org/2000/svg">
<path d="M36.0182 128.623C35.0584 127.901 34.8537 126.918 34.8705 125.767C34.9174 122.417 34.8637 119.068 34.904 115.719C34.9141 114.953 34.6221 114.557 34.0046 114.118C31.9842 112.678 30.0008 111.611 27.7388 113.634C14.7307 118.591 1.49432 110.815 0.0746977 96.7937C-0.348167 92.6221 0.990912 90.6118 4.94772 89.1486C18.4223 84.1581 31.85 92.9577 32.3802 107.234C32.4339 108.711 33.0011 109.275 34.0817 109.835C34.7429 110.178 34.8973 109.963 34.8839 109.342C34.8805 109.134 34.8872 108.923 34.8872 108.714C34.8872 103.147 34.8738 97.579 34.9007 92.0113C34.904 91.1823 34.7295 90.689 33.9073 90.2561C31.8164 89.1586 30.7458 87.3296 30.7324 84.9467C30.7123 82.0572 30.7123 79.171 30.7391 76.2814C30.7458 75.6034 30.6351 75.1504 29.937 74.8013C28.6919 74.1771 27.91 73.0864 27.477 71.7574C27.2186 70.962 26.9669 70.1666 26.7286 69.3645C25.8258 66.3071 23.9464 64.0686 21.1105 62.6322C19.7648 61.951 18.429 61.2596 17.2746 60.2696C13.9286 57.4068 12.2405 53.7487 12.1968 49.3657C12.1498 44.5531 12.1733 39.7371 12.1968 34.9212C12.2002 34.203 12.123 33.723 11.3444 33.3673C10.0792 32.7901 9.36766 31.6825 9.32403 30.273C9.26697 28.4339 9.22334 26.588 9.32067 24.7523C9.42806 22.6849 11.0256 21.225 13.113 21.1344C13.989 21.0941 14.875 21.0673 15.7476 21.1411C16.6638 21.2183 16.8584 20.8424 16.8517 19.9967C16.8181 15.3485 16.7779 10.7004 16.8618 6.05559C16.9356 1.86721 20.7514 -0.904902 24.6512 0.273078C27.2354 1.05504 28.9302 3.36402 28.9503 6.25695C28.9805 10.8212 28.9839 15.3821 28.9369 19.9464C28.9268 20.8559 29.1215 21.2653 30.1015 21.1411C30.719 21.0639 31.3566 21.1143 31.9842 21.1311C33.4172 21.1613 34.2865 21.9164 34.2529 23.0809C34.2193 24.1918 33.3803 24.8899 31.9943 24.8932C26.1346 24.9033 20.2715 24.9268 14.4118 24.8697C13.301 24.8597 12.915 25.155 13.0191 26.2658C13.1097 27.219 13.0761 28.1922 13.0291 29.1521C12.9922 29.9206 13.2842 30.1891 14.046 30.1455C15.0059 30.0918 15.9724 30.132 16.9356 30.132C31.0009 30.132 45.0695 30.1186 59.1348 30.1589C60.2356 30.1622 60.6451 29.887 60.531 28.7695C60.4403 27.8566 60.4638 26.927 60.5242 26.0108C60.5847 25.1315 60.2591 24.8764 59.3832 24.8798C53.6476 24.9134 47.9121 24.8966 42.1766 24.8966C41.841 24.8966 41.5054 24.91 41.1731 24.8865C40.079 24.8093 39.3239 24.0777 39.2971 23.0776C39.2669 22.0808 39.9851 21.2485 41.0658 21.1546C41.8981 21.0807 42.7438 21.074 43.5761 21.1411C44.4285 21.2116 44.6165 20.8693 44.6097 20.0739C44.5762 15.4694 44.5628 10.8648 44.6031 6.26031C44.64 1.95111 48.4995 -0.948531 52.4798 0.286503C55.0606 1.08525 56.6815 3.34053 56.705 6.30729C56.7386 10.7876 56.7486 15.268 56.6916 19.745C56.6782 20.8089 56.893 21.2989 58.0542 21.1478C58.7959 21.0505 59.5611 21.1109 60.3128 21.1344C62.5412 21.2049 64.1421 22.6782 64.2461 24.8831C64.3267 26.6384 64.2931 28.4003 64.2428 30.1555C64.2025 31.6624 63.4709 32.8068 62.1016 33.4411C61.5076 33.7163 61.3297 34.0553 61.3532 34.6762C61.4002 35.8474 61.3935 37.0221 61.3565 38.1933C61.3163 39.4787 60.5779 40.2472 59.4671 40.2506C58.3361 40.254 57.6347 39.4988 57.6045 38.1967C57.5776 37.0657 57.5575 35.9347 57.6112 34.807C57.6448 34.0721 57.3662 33.8472 56.6681 33.8976C56.0003 33.9445 55.3291 33.9076 54.6578 33.9076C42.1833 33.9076 29.7054 33.921 17.2309 33.8841C16.1771 33.8808 15.912 34.1694 15.9221 35.2064C15.9791 39.8512 15.9187 44.4994 15.9556 49.1475C15.9892 53.5138 17.9021 56.8531 21.8489 58.7526C26.5004 60.9911 29.4202 64.5116 30.729 69.4786C31.3298 71.754 31.5513 71.8446 33.8603 71.8446C35.8269 71.8446 37.7969 71.8446 39.7636 71.8446C41.9618 71.8446 42.2001 71.707 42.8109 69.529C43.7036 66.3642 45.083 63.5149 47.6436 61.3401C48.7377 60.4105 49.9459 59.6722 51.2246 59.0479C55.5841 56.9135 57.6984 53.4165 57.5978 48.5737C57.5877 48.1139 57.5776 47.6507 57.6078 47.191C57.6817 46.0902 58.42 45.3485 59.4268 45.325C60.4101 45.3048 61.2626 46.0365 61.3364 47.1205C61.7593 53.1211 59.7759 58.5345 53.99 61.8301C53.4463 62.1389 52.8858 62.4275 52.3287 62.7128C49.5767 64.119 47.7611 66.3105 46.8483 69.2571C46.5898 70.0961 46.3382 70.9352 46.0697 71.7708C45.6837 72.9622 45.036 74.0362 43.9218 74.6033C42.9217 75.1135 42.774 75.8048 42.7975 76.7982C42.8545 79.4327 42.8075 82.074 42.821 84.7118C42.8344 87.2994 41.7202 89.2257 39.4246 90.4071C38.8474 90.7058 38.646 91.0313 38.6494 91.6522C38.6662 97.4716 38.6695 103.291 38.6494 109.11C38.646 110.007 38.7836 110.117 39.6931 109.762C41.247 109.157 41.0523 107.996 41.1295 106.744C41.9719 93.1691 54.7149 84.5709 67.6492 88.8264C68.5587 89.1251 69.4615 89.4808 70.3106 89.9204C72.5289 91.0682 73.6096 92.9745 73.5894 95.4345C73.5089 104.627 67.0887 112.701 58.1347 114.678C53.1073 115.789 48.2276 115.158 43.707 112.537C43.2103 112.248 42.8277 112.107 42.3679 112.503C42.3377 112.53 42.2974 112.547 42.2572 112.564C39.3642 113.641 38.1258 115.541 38.5923 118.759C38.9246 121.055 38.6192 123.441 38.6729 125.783C38.6997 126.935 38.4782 127.915 37.5251 128.639C37.0217 128.623 36.5216 128.623 36.0182 128.623ZM46.7543 109.896C49.9895 111.292 53.1644 111.728 56.403 111.164C64.0817 109.829 69.589 103.351 69.8273 95.5184C69.8575 94.4646 69.4548 93.6356 68.4681 93.1758C61.7559 90.048 54.0571 91.1958 49.1438 96.6896C46.7006 99.4215 45.3749 102.647 44.9991 106.305C45.5763 106.362 45.875 106.026 46.2207 105.822C51.5535 102.68 56.8796 99.5289 62.2157 96.3909C63.4944 95.6392 64.5616 95.8204 65.1624 96.8407C65.7631 97.8542 65.4006 98.8577 64.1119 99.6329C62.1385 100.818 60.1551 101.979 58.175 103.15C54.4363 105.358 50.6943 107.567 46.7543 109.896ZM26.6447 109.866C26.3427 109.664 26.0742 109.47 25.7923 109.302C22.5906 107.406 19.3822 105.516 16.1771 103.623C13.8379 102.241 11.4853 100.875 9.16294 99.4651C8.11249 98.8275 7.83394 97.8307 8.34406 96.8977C8.88103 95.9211 9.93149 95.656 11.0524 96.2299C11.3108 96.3641 11.5558 96.5252 11.8075 96.6762C16.9591 99.7168 22.1073 102.757 27.2622 105.788C27.628 106.003 27.9603 106.352 28.467 106.315C28.4805 106.127 28.5073 105.999 28.4939 105.882C27.0407 94.5015 15.7643 88.1686 5.01149 93.2094C4.02816 93.6692 3.64555 94.5317 3.71939 95.5855C3.93082 98.5959 4.73293 101.425 6.35055 103.999C11.3142 111.899 20.7045 112.755 26.6447 109.866ZM25.1848 13.1872C25.1848 10.8917 25.215 8.59278 25.1748 6.29723C25.1446 4.56549 23.7954 3.44792 22.3154 3.84729C21.2079 4.14598 20.6138 5.00178 20.6071 6.43818C20.5904 10.1567 20.6004 13.8719 20.6004 17.5904C20.6004 21.2854 20.6004 21.2653 24.282 21.1445C24.9935 21.121 25.2117 20.9096 25.1982 20.2081C25.1647 17.8656 25.1882 15.5264 25.1848 13.1872ZM52.9395 13.2242C52.9395 10.9286 52.9328 8.62969 52.9429 6.33414C52.9462 5.39109 52.6576 4.60577 51.822 4.10236C50.2111 3.12909 48.382 4.3205 48.3652 6.40126C48.335 10.1601 48.3384 13.9189 48.3686 17.6777C48.3786 18.7885 47.8718 20.2451 48.6001 20.923C49.315 21.5875 50.7547 21.027 51.8689 21.1378C52.7918 21.2317 52.9764 20.8257 52.9596 19.9934C52.9093 17.7347 52.9429 15.4794 52.9395 13.2242ZM34.4946 80.6409C34.4946 81.98 34.4812 83.3191 34.4979 84.6548C34.5181 86.2724 35.3672 87.2289 36.7599 87.2356C38.1527 87.2423 39.0286 86.2791 39.0454 84.6749C39.0655 82.7921 39.0823 80.9094 39.0387 79.03C39.0152 77.9191 39.5455 76.4022 38.8004 75.8048C38.1023 75.2443 36.6492 75.6269 35.5282 75.5934C35.4443 75.59 35.3604 75.6034 35.2765 75.5934C34.6825 75.5195 34.4677 75.7679 34.4811 76.372C34.5181 77.795 34.4946 79.2179 34.4946 80.6409Z" fill="#59B73F"/>
<path d="M36.7328 38.6856C41.4481 38.6722 45.3008 42.5115 45.2908 47.21C45.2807 51.8414 41.4481 55.6807 36.81 55.7109C32.145 55.7411 28.2386 51.838 28.252 47.1597C28.2654 42.5149 32.0846 38.699 36.7328 38.6856ZM41.5219 47.2402C41.5521 44.6762 39.4512 42.5014 36.8872 42.4545C34.246 42.4041 32.0545 44.5117 32.0209 47.1328C31.9873 49.7371 34.1755 51.9488 36.7798 51.9421C39.3337 51.9354 41.4917 49.7975 41.5219 47.2402Z" fill="#59B73F"/>
</svg>
