<svg width="199" height="53" viewBox="0 0 199 53" fill="none" xmlns="http://www.w3.org/2000/svg">
<path d="M199 26.9403C198.28 28.7946 197.065 30.0846 195.011 30.4877C192.111 31.052 189.212 28.7884 189.187 25.8612C189.155 22.0657 189.168 18.2765 189.18 14.481C189.187 12.2546 190.903 10.2142 193.069 9.80491C195.506 9.34598 197.823 10.5367 198.718 12.7073C198.812 12.9368 198.9 13.1663 198.994 13.3957C199 17.9106 199 22.4254 199 26.9403ZM192.418 20.0192H192.412C192.412 21.8549 192.393 23.6906 192.418 25.5263C192.431 26.5186 193.126 27.2008 194.046 27.1946C194.986 27.1884 195.643 26.5186 195.643 25.5015C195.656 21.8797 195.65 18.2579 195.65 14.6361C195.65 14.3074 195.6 13.9973 195.412 13.7182C195.005 13.1166 194.278 12.8128 193.57 13.036C192.869 13.2593 192.418 13.7492 192.412 14.512C192.412 16.3477 192.418 18.1835 192.418 20.0192Z" fill="black"/>
<path d="M7.66539 52.6899C7.00782 52.2992 6.9953 51.8092 7.346 51.1829C8.17266 49.7131 8.95549 48.2122 9.76336 46.7238C10.2143 45.8866 11.0034 45.5951 11.8864 45.5393C13.5835 45.4339 15.2807 45.3532 16.9841 45.2788C18.2304 45.223 18.6187 45.7626 18.1615 46.9099C17.6229 48.2495 17.0655 49.5704 16.552 50.9224C16.1324 52.0201 15.2932 52.4666 14.191 52.5721C13.7714 52.6155 13.3393 52.5038 12.9322 52.6961C11.1724 52.6899 9.41892 52.6899 7.66539 52.6899Z" fill="#2D8C42" stroke="#70B852" stroke-miterlimit="10"/>
<path fill-rule="evenodd" clip-rule="evenodd" d="M32.9224 1.7861C32.6657 1.19693 32.4152 0.601568 32.1646 0.00620173C32.1146 0.00620173 32.0644 0.00620173 32.0269 0C31.601 0.762813 31.0624 1.45741 30.4049 2.02176C28.5574 3.61561 26.0148 3.44816 24.3427 1.67447C24.0736 1.38928 23.8187 1.08647 23.5647 0.784639C23.4817 0.686085 23.3989 0.587635 23.3156 0.489937C23.0588 0.17985 22.871 0.210859 22.7395 0.582963C22.6643 0.793821 22.5907 1.00468 22.5171 1.21554C22.4436 1.4264 22.37 1.63726 22.2948 1.84812C21.3241 4.50866 18.3682 5.55675 15.907 4.11795C15.5187 3.88849 15.1367 3.65283 14.7547 3.41717L14.7547 3.41715C14.3977 3.20009 14.2724 3.31793 14.2599 3.70864C14.2499 4.01274 14.2257 4.31507 14.2014 4.61753C14.1801 4.88255 14.1589 5.14765 14.1472 5.41411C14.0345 7.8824 11.6672 9.73672 9.206 9.27779C8.71126 9.18477 8.22278 9.09174 7.7343 8.98011C7.22703 8.86848 7.08299 9.02972 7.23329 9.51966C7.2897 9.69901 7.35139 9.87661 7.41302 10.054C7.61138 10.6251 7.80912 11.1945 7.82823 11.8143C7.90339 14.2888 6.33148 16.0935 3.84523 16.354C3.6885 16.3698 3.53176 16.3922 3.37455 16.4148C3.16114 16.4454 2.94685 16.4761 2.73049 16.4904C2.15433 16.5338 2.18564 16.7571 2.47372 17.1416C2.5721 17.2727 2.67262 17.4025 2.77311 17.5321C3.33788 18.261 3.9015 18.9884 4.07694 19.9572C4.40886 21.8053 3.56968 23.6224 1.87251 24.5154C1.47787 24.7207 1.0807 24.9184 0.682599 25.1166C0.455267 25.2298 0.227633 25.3431 0 25.4581V25.607C0.0825556 25.6589 0.16531 25.7106 0.248086 25.7623C0.629979 26.0011 1.01233 26.2401 1.37777 26.5C3.92038 28.1931 4.20846 31.1637 2.0416 33.3157C1.89756 33.4552 1.75666 33.5963 1.61575 33.7374C1.47484 33.8785 1.33393 34.0196 1.18989 34.1591C0.883025 34.4568 0.926863 34.6615 1.35272 34.7731C1.4698 34.8032 1.58721 34.8326 1.70473 34.862C2.09637 34.9601 2.48916 35.0584 2.87453 35.1824C5.43593 36.0011 6.61329 38.7112 5.46098 41.1175C5.40953 41.2269 5.35808 41.3359 5.30672 41.4447C5.14552 41.7864 4.98519 42.1261 4.82846 42.4695C4.7032 42.7361 4.78462 42.9036 5.10401 42.9036C5.17072 42.9036 5.23788 42.9053 5.30512 42.9071C5.49039 42.912 5.67632 42.9168 5.85552 42.885C7.1143 42.6741 8.29793 42.8354 9.36883 43.5672C9.69449 43.7904 9.86358 43.5982 10.0076 43.3253C10.0496 43.2472 10.0916 43.169 10.1336 43.0907C10.455 42.4918 10.7782 41.8897 11.1161 41.2973C11.3353 40.919 11.2476 40.6213 10.9908 40.2865C7.72803 35.9824 6.31269 31.1451 6.75107 25.7744C7.17693 20.5773 9.29994 16.1369 13.0512 12.5461C17.8171 7.98163 23.6037 6.01568 30.2232 6.72268C36.0036 7.33665 40.7256 9.95378 44.3955 14.4128C46.124 16.5152 47.389 18.8657 48.1593 21.4704C48.3096 21.9789 48.5163 22.227 49.1112 22.1154C49.75 21.9913 50.4013 21.9541 51.0526 21.9231C51.5975 21.8983 51.7979 21.7619 51.6538 21.1541C51.3407 19.7897 51.5411 18.4998 52.4554 17.3586C52.5282 17.2683 52.6155 17.1747 52.7048 17.0789C53.008 16.7541 53.3347 16.404 53.1944 16.0687C53.0517 15.7312 52.6109 15.7459 52.1859 15.76C52.0329 15.7651 51.882 15.7701 51.7478 15.7586C48.9045 15.5105 47.1635 13.2903 47.6833 10.5491C47.7376 10.2597 47.8309 9.97582 47.9241 9.69192C47.9707 9.54997 48.0173 9.40802 48.0591 9.26539C48.3096 8.38474 48.2595 8.33513 47.3953 8.53979C47.007 8.63281 46.6187 8.72584 46.2242 8.80646C43.5563 9.35221 41.1577 7.49789 41.045 4.80634C41.0367 4.52523 41.0339 4.24411 41.0311 3.96299C41.0297 3.82239 41.0283 3.68179 41.0262 3.54119C41.02 3.03265 40.8571 2.82179 40.3561 3.16288C40.0305 3.38615 39.686 3.5908 39.3416 3.79546C36.8553 5.29008 34.0747 4.42804 32.9224 1.7861ZM25.4576 8.60186C15.7944 9.836 8.53604 17.9913 8.55483 28.3606C8.59241 31.4552 9.65078 34.9902 11.8051 38.1903C12.3124 38.9345 12.4001 38.9345 12.8197 38.1593C13.3616 37.1552 13.9057 36.1524 14.4497 35.1496C15.9555 32.3744 17.4611 29.5994 18.9194 26.7977C19.5707 25.545 20.5101 24.9806 21.8691 24.8566C24.1653 24.6444 26.4581 24.4117 28.7525 24.1788C29.5431 24.0985 30.334 24.0182 31.1252 23.9387C33.5144 23.7 35.9036 23.4581 38.2928 23.2162C40.6819 22.9744 43.0711 22.7325 45.4603 22.4937C46.431 22.4007 46.4873 22.3449 46.1742 21.4084C43.331 12.8873 34.5258 7.44834 25.4576 8.60186Z" fill="url(#paint0_linear_133_5986)"/>
<path d="M168.238 18.202C168.238 21.6874 168.238 25.179 168.238 28.6643C168.238 28.9372 168.219 29.2101 168.244 29.483C168.294 30.0411 168.1 30.314 167.487 30.2706C166.91 30.2334 166.334 30.2334 165.758 30.2706C165.144 30.314 164.982 30.0411 164.988 29.483C165.007 27.4984 164.994 25.5139 164.994 23.5293C164.994 19.3121 165.013 15.095 164.982 10.884C164.975 10.1336 165.207 9.84829 165.965 9.91651C166.585 9.97233 167.217 9.96613 167.844 9.91651C168.464 9.8669 168.727 10.1274 168.896 10.6917C169.91 14.1399 170.956 17.5819 171.989 21.0238C172.133 21.4951 172.277 21.9603 172.509 22.4192C172.509 20.1742 172.509 17.9354 172.509 15.6903C172.509 14.0283 172.522 12.3662 172.503 10.7041C172.497 10.1398 172.685 9.8731 173.279 9.91651C173.755 9.94752 174.231 9.92272 174.707 9.92272C175.747 9.92892 175.753 9.92892 175.753 10.9398C175.753 15.802 175.753 20.6641 175.753 25.5201C175.753 26.81 175.722 28.1 175.766 29.3899C175.791 30.0721 175.553 30.3326 174.87 30.2706C174.05 30.1962 173.092 30.5559 172.44 30.128C171.776 29.6938 171.789 28.6768 171.532 27.9077C170.536 24.9185 169.566 21.9231 168.589 18.9276C168.507 18.6796 168.413 18.4315 168.326 18.1834C168.294 18.1896 168.269 18.1958 168.238 18.202Z" fill="black"/>
<path d="M107.115 22.5804C107.115 18.6671 107.115 14.9088 107.115 11.1506C107.115 9.92882 107.115 9.92882 108.336 9.92882C108.787 9.92882 109.238 9.95363 109.689 9.92262C110.221 9.89161 110.378 10.1335 110.378 10.6296C110.365 16.9492 110.365 23.2749 110.378 29.6007C110.378 30.1341 110.153 30.2953 109.658 30.2767C109.006 30.2519 108.355 30.2333 107.704 30.2829C107.084 30.3325 106.827 30.0658 106.645 29.5077C105.474 25.8735 104.278 22.2455 103.082 18.6236C103.038 18.4872 102.988 18.3508 102.85 18.2205C102.85 20.3601 102.85 22.4997 102.85 24.6393C102.85 26.2766 102.832 27.9138 102.857 29.5511C102.863 30.0969 102.669 30.3139 102.118 30.2829C101.516 30.2519 100.915 30.2519 100.314 30.2829C99.7441 30.3139 99.575 30.0596 99.5876 29.5325C99.6126 28.2921 99.5938 27.0518 99.5938 25.8115C99.5938 20.8501 99.5938 15.8949 99.5938 10.9335C99.5938 9.94122 99.6001 9.94122 100.59 9.93502C100.64 9.93502 100.69 9.92882 100.74 9.93502C101.56 9.99084 102.537 9.61873 103.151 10.1025C103.758 10.58 103.74 11.5847 103.978 12.3661C104.973 15.6406 105.938 18.9213 106.921 22.1958C106.959 22.2765 107.009 22.3571 107.115 22.5804Z" fill="black"/>
<path d="M112.977 20.0936C112.977 17.0423 112.977 13.9973 112.977 10.946C112.977 9.94135 112.983 9.93515 113.96 9.93515C115.338 9.92895 116.716 9.91655 118.087 9.94135C120.824 9.99097 122.346 11.2437 122.734 13.9105C122.966 15.4981 122.928 17.123 122.715 18.723C122.609 19.5602 122.252 20.3044 121.682 20.9122C121.288 21.3277 121.225 21.7122 121.369 22.2456C122.008 24.6146 122.609 26.9899 123.223 29.3652C123.454 30.2582 123.442 30.2644 122.49 30.2706C121.864 30.2706 121.237 30.2458 120.611 30.2768C120.079 30.3078 119.86 30.0722 119.741 29.5822C119.252 27.5357 118.745 25.4953 118.238 23.4487C118.069 22.7727 117.016 22.3634 116.421 22.7355C116.158 22.903 116.227 23.1758 116.227 23.4115C116.221 25.3961 116.196 27.3806 116.24 29.359C116.252 30.0846 115.989 30.283 115.288 30.2768C112.983 30.2582 112.983 30.283 112.983 27.9698C112.977 25.3465 112.977 22.7231 112.977 20.0936ZM116.221 16.3415C116.221 16.8377 116.221 17.3276 116.221 17.8238C116.221 19.6347 116.221 19.6347 118.043 19.4548C118.952 19.368 119.553 18.7602 119.584 17.8548C119.609 17.185 119.559 16.5214 119.597 15.8516C119.741 12.9926 118.651 13.2841 116.841 13.2779C116.396 13.2779 116.209 13.4515 116.221 13.8919C116.234 14.7105 116.227 15.5291 116.221 16.3415Z" fill="black"/>
<path d="M97.1327 18.2455C97.1327 20.6765 97.1577 23.1076 97.1264 25.5325C97.0888 28.3605 94.9846 30.5001 92.2479 30.5497C89.4297 30.5993 87.1689 28.4535 87.1501 25.6069C87.1125 20.6455 87.1438 15.6903 87.1313 10.729C87.1313 10.1646 87.3067 9.89793 87.9079 9.92894C88.484 9.95994 89.0602 9.95374 89.6364 9.92894C90.1812 9.90413 90.4004 10.1212 90.3879 10.6669C90.3628 12.0065 90.3816 13.3461 90.3816 14.6857C90.3816 18.2579 90.3753 21.8301 90.3879 25.3961C90.3879 26.5558 91.1206 27.2752 92.1978 27.1884C92.8929 27.1325 93.3689 26.7666 93.5693 26.1093C93.707 25.6565 93.7446 25.1914 93.7446 24.7139C93.7383 20.1246 93.7383 15.5415 93.7383 10.9522C93.7383 9.94134 93.7446 9.94134 94.7905 9.93514C97.1327 9.92273 97.1327 9.92273 97.1327 12.2174C97.1327 14.2267 97.1327 16.2361 97.1327 18.2455Z" fill="black"/>
<path d="M79.8916 30.5559C77.1424 30.5621 75.2323 28.9186 74.6749 26.0658C74.3806 24.565 74.4056 24.5154 75.9775 24.5216C76.4973 24.5278 77.0797 24.2115 77.5118 24.5278C77.9189 24.8255 77.7749 25.4518 77.9502 25.9108C78.3886 27.1077 79.2215 27.7031 80.1734 27.4426C81.1504 27.1759 81.7391 25.979 81.4823 24.8379C81.2506 23.8208 80.6369 23.0642 79.8791 22.382C78.6015 21.2285 77.2989 20.0997 76.2218 18.7478C74.75 16.9059 74.3993 14.8283 75.1884 12.6515C75.9274 10.6049 77.468 9.66843 79.6724 9.68704C82.3528 9.71185 84.0187 10.9956 84.6011 13.5817C84.7389 14.1771 84.7076 14.6236 83.931 14.6546C83.7369 14.6608 83.5427 14.7352 83.3423 14.7663C82.8288 14.8469 82.2651 15.0825 81.8017 14.9585C81.2819 14.8221 81.4448 14.1027 81.2068 13.681C80.8561 13.0422 80.3989 12.6205 79.6098 12.6763C78.852 12.7321 78.5452 13.253 78.3385 13.867C78.0191 14.8035 78.2508 15.6779 78.708 16.5089C79.2591 17.5136 80.1108 18.2454 80.9813 18.9586C82.2651 20.0067 83.3924 21.1913 84.1627 22.6797C84.8579 24.0192 85.0269 25.4208 84.67 26.8658C84.0813 29.2845 82.4029 30.5559 79.8916 30.5559Z" fill="black"/>
<path d="M136.856 30.556C134.101 30.5622 132.197 28.9311 131.633 26.0721C131.339 24.5713 131.364 24.5155 132.929 24.5279C133.449 24.5279 134.032 24.224 134.464 24.5341C134.871 24.8256 134.689 25.4705 134.908 25.9171C135.04 26.1837 135.146 26.4628 135.309 26.7109C135.697 27.3001 136.242 27.6163 136.969 27.4799C137.664 27.3435 138.134 26.8907 138.347 26.2396C138.816 24.8194 138.159 23.7217 137.207 22.7666C136.098 21.6565 134.921 20.6146 133.812 19.5045C132.767 18.4626 132.078 17.2222 131.827 15.7462C131.37 13.0795 132.729 10.512 135.077 9.9228C137.952 9.2096 140.833 10.2267 141.566 13.6004C141.697 14.1958 141.672 14.6423 140.895 14.6733C140.676 14.6795 140.457 14.7602 140.232 14.7974C139.743 14.878 139.205 15.095 138.766 14.9834C138.278 14.8532 138.415 14.1772 138.203 13.7679C137.858 13.1043 137.407 12.6268 136.574 12.695C135.785 12.757 135.472 13.3089 135.278 13.9539C134.977 14.9524 135.259 15.8641 135.785 16.7199C136.336 17.6253 137.132 18.3137 137.946 18.9773C139.236 20.0254 140.357 21.21 141.127 22.6922C141.822 24.0317 141.991 25.4333 141.634 26.8783C141.046 29.2846 139.367 30.5498 136.856 30.556Z" fill="black"/>
<path d="M148.586 9.92278C149.814 9.92278 151.041 9.94758 152.263 9.91037C152.901 9.89177 153.102 10.146 153.064 10.7414C153.027 11.2872 153.027 11.8329 153.064 12.3787C153.102 12.9554 152.889 13.1725 152.294 13.1601C150.941 13.1291 149.588 13.1725 148.242 13.1415C147.653 13.1291 147.44 13.3275 147.459 13.9105C147.49 15.1756 147.484 16.4408 147.459 17.6997C147.447 18.2393 147.647 18.4626 148.204 18.444C149.056 18.4191 149.908 18.4564 150.76 18.4316C151.317 18.4191 151.599 18.599 151.567 19.2006C151.53 19.7959 151.536 20.3913 151.567 20.9867C151.599 21.5572 151.38 21.7991 150.791 21.7743C149.939 21.7433 149.087 21.7867 148.236 21.7619C147.71 21.7433 147.453 21.8983 147.465 22.4689C147.49 23.7588 147.49 25.0488 147.465 26.3326C147.453 26.9031 147.697 27.052 148.229 27.0458C149.607 27.021 150.985 27.052 152.356 27.0334C152.864 27.0272 153.095 27.1946 153.07 27.7217C153.039 28.3667 153.052 29.0117 153.07 29.6567C153.083 30.1032 152.889 30.2707 152.444 30.2707C149.889 30.2583 147.34 30.2583 144.785 30.2707C144.146 30.2769 144.127 29.8862 144.127 29.4396C144.127 26.7109 144.127 23.9883 144.127 21.2595C144.127 17.8114 144.127 14.3694 144.127 10.9213C144.127 9.94138 144.152 9.92278 145.136 9.92278C146.282 9.92278 147.434 9.92278 148.586 9.92278Z" fill="black"/>
<path d="M178.359 20.0937C178.359 17.0176 178.384 13.9416 178.34 10.8655C178.327 10.0965 178.59 9.89805 179.329 9.91045C181.684 9.94766 184.039 9.94766 186.393 9.91045C187.089 9.89805 187.352 10.1337 187.302 10.8097C187.264 11.3306 187.276 11.8516 187.302 12.3725C187.327 12.9369 187.114 13.1726 186.519 13.1602C185.141 13.1291 183.763 13.1726 182.385 13.1416C181.797 13.1291 181.59 13.3214 181.609 13.9106C181.646 15.1757 181.64 16.4409 181.609 17.706C181.596 18.2456 181.778 18.4688 182.342 18.4502C183.243 18.4192 184.145 18.4564 185.047 18.4378C185.598 18.4254 185.817 18.6549 185.799 19.1944C185.773 19.8146 185.78 20.4348 185.799 21.055C185.817 21.6069 185.554 21.7992 185.022 21.7806C184.17 21.7558 183.319 21.8116 182.467 21.762C181.816 21.7247 181.59 21.9356 181.603 22.5992C181.64 24.8318 181.59 27.0644 181.628 29.2971C181.64 30.0165 181.465 30.3017 180.669 30.2893C178.352 30.2583 178.352 30.2893 178.352 27.9885C178.359 25.3528 178.359 22.7232 178.359 20.0937Z" fill="black"/>
<path d="M57.5467 51.7908C57.2399 51.7412 56.7639 51.6978 56.3067 51.5738C55.4801 51.3443 54.9164 50.8854 54.7599 49.9613C54.4968 48.3985 54.1524 46.8542 53.8518 45.2976C53.6952 44.4666 53.9144 44.0883 54.7286 43.8464C55.1544 43.7224 55.6116 43.6417 56.0562 43.6231C58.2043 43.5425 60.3524 43.4619 62.5004 43.4371C64.016 43.4247 64.7988 43.7596 65.3123 45.3224C65.8071 46.8232 66.4709 48.2744 67.0283 49.7629C67.3665 50.6559 67.0846 51.1831 66.1578 51.4435C65.7758 51.549 65.375 51.6234 64.9804 51.6358C62.5568 51.7102 60.1269 51.58 57.5467 51.7908Z" fill="#2D8C42" stroke="#70B852" stroke-miterlimit="10"/>
<path d="M46.7749 51.9704C45.8042 51.9704 44.702 51.989 43.5998 51.9642C42.103 51.9332 41.6208 51.4371 41.6271 49.9921C41.6271 48.7021 41.6208 47.4122 41.6333 46.1222C41.6396 44.8136 42.0717 44.3299 43.3806 44.2059C44.2761 44.1252 45.1779 44.088 46.0735 44.0446C47.3197 43.9888 48.5723 43.9144 49.8185 43.902C51.4781 43.8834 51.9541 44.2865 52.2359 45.8741C52.4676 47.1889 52.693 48.5099 52.906 49.8308C53.1001 51.034 52.6367 51.6169 51.403 51.803C49.9062 52.0324 48.4032 51.9084 46.7749 51.9704Z" fill="#2D8C42" stroke="#70B852" stroke-miterlimit="10"/>
<path d="M33.2728 52.2496C32.2833 52.2496 31.5569 52.2868 30.8367 52.2434C29.6155 52.169 29.1896 51.6108 29.4213 50.4449C29.6781 49.1301 29.9474 47.8216 30.2104 46.5068C30.4609 45.2416 30.9619 44.7517 32.2708 44.6649C34.2686 44.5346 36.2664 44.454 38.2641 44.392C38.6524 44.3796 39.0595 44.4974 39.429 44.6277C39.8611 44.7827 40.1304 45.1176 40.074 45.6076C39.9049 47.1394 40.0615 48.6774 39.8861 50.2092C39.7421 51.4682 39.2286 52.076 37.8884 52.0946C36.2538 52.1132 34.6381 52.3302 33.2728 52.2496Z" fill="#2D8C42" stroke="#70B852" stroke-miterlimit="10"/>
<path d="M25.7582 44.9378C26.5723 44.9378 27.1986 44.9006 27.8249 44.944C28.6703 45.006 28.9709 45.4278 28.7956 46.2464C28.4949 47.6232 28.1818 49 27.8687 50.3767C27.5681 51.6791 26.8792 52.3241 25.5515 52.3799C23.5287 52.4605 21.5059 52.4419 19.4831 52.5163C17.9926 52.566 17.6294 51.952 18.1366 50.5442C18.5813 49.31 19.1136 48.1007 19.5081 46.848C19.8902 45.6324 20.7544 45.1363 21.9192 45.1053C23.2594 45.0805 24.5996 44.8634 25.7582 44.9378Z" fill="#2D8C42" stroke="#70B852" stroke-miterlimit="10"/>
<path d="M129.147 20.0874C129.147 23.1883 129.135 26.283 129.16 29.3838C129.166 30.0536 128.966 30.3327 128.264 30.2769C127.644 30.2273 127.012 30.2521 126.385 30.2645C125.966 30.2707 125.79 30.0784 125.79 29.6815C125.79 29.5079 125.784 29.3342 125.784 29.1606C125.784 23.1139 125.784 17.0672 125.784 11.0143C125.784 9.9352 125.79 9.9352 126.868 9.929C127.344 9.929 127.82 9.96001 128.295 9.9228C128.953 9.87319 129.166 10.1399 129.16 10.7848C129.135 13.8857 129.147 16.9866 129.147 20.0874Z" fill="black"/>
<path d="M159.151 20.0938C159.151 17.0177 159.164 13.9478 159.139 10.8718C159.133 10.1772 159.339 9.86089 160.078 9.92291C160.648 9.97252 161.231 9.94772 161.807 9.92911C162.32 9.9105 162.527 10.1276 162.521 10.6361C162.502 11.7276 162.514 12.8191 162.514 13.9106C162.514 19.0146 162.514 24.1249 162.514 29.2289C162.514 30.2646 162.508 30.2646 161.481 30.2646C159.151 30.277 159.151 30.277 159.151 27.9762C159.151 25.3466 159.151 22.7233 159.151 20.0938Z" fill="black"/>
<path d="M60.0204 36.3113C61.4921 36.3113 61.8867 36.5904 62.4628 38.1098C62.8198 39.0586 63.2143 40.0013 63.5713 40.9564C63.8531 41.7192 63.6465 42.1347 62.8699 42.3642C62.4628 42.482 62.037 42.544 61.6174 42.5688C59.5695 42.6743 57.5216 42.7611 55.4738 42.8479C53.9269 42.9161 53.2881 42.4262 52.9813 40.9316C52.7809 39.9579 52.6118 38.9842 52.3926 38.0168C52.2611 37.44 52.4991 37.0927 53.0126 36.919C53.4134 36.7826 53.833 36.6772 54.2526 36.6524C56.1126 36.5159 57.9851 36.4229 60.0204 36.3113Z" fill="#2D8C42" stroke="#70B852" stroke-miterlimit="10"/>
<path d="M48.3787 37.0119C50.7397 36.9995 50.7585 37.0181 51.1217 39.3314C51.2344 40.0384 51.3597 40.7453 51.4724 41.4523C51.6164 42.3082 51.391 42.7175 50.5267 42.916C49.9255 43.0586 49.293 43.1082 48.673 43.1392C46.9508 43.2198 45.2286 43.3005 43.5064 43.3191C41.9157 43.3377 41.5211 42.8229 41.6777 41.2725C41.7654 40.4167 41.7591 39.5422 41.7403 38.6802C41.7278 38.0228 42.0409 37.6755 42.6359 37.4894C43.3122 37.2724 44.0199 37.3344 44.7151 37.2414C45.3288 37.1545 45.9613 37.1856 46.5876 37.1545C47.1888 37.1111 47.7837 37.0553 48.3787 37.0119Z" fill="#2D8C42" stroke="#70B852" stroke-miterlimit="10"/>
<path d="M33.7681 43.778C33.1919 43.778 32.6157 43.809 32.0459 43.7718C31.1503 43.7159 30.856 43.3128 31.0188 42.4446C31.2192 41.4027 31.4446 40.3608 31.6263 39.3127C31.7452 38.5995 32.1711 38.2522 32.8349 38.0724C33.4737 37.8987 34.125 37.9359 34.7701 37.8801C36.1604 37.7623 37.5569 37.6817 38.9535 37.6569C40.0369 37.632 40.2999 37.9483 40.2937 39.046C40.2874 40.1065 40.2749 41.1732 40.1747 42.2337C40.1183 42.8167 39.849 43.1392 39.3418 43.3438C38.9472 43.4989 38.5339 43.6167 38.1018 43.6167C36.6614 43.6167 35.2147 43.778 33.7681 43.778Z" fill="#2D8C42" stroke="#70B852" stroke-miterlimit="10"/>
<path d="M22.1823 44.3052C20.9987 44.3424 20.6417 43.8525 21.0425 42.7672C21.3807 41.8617 21.7752 40.9687 22.0508 40.0446C22.3326 39.0895 22.9964 38.6492 23.9045 38.5686C25.6205 38.4197 27.3427 38.3081 29.0711 38.2461C30.2673 38.2027 30.5178 38.5376 30.2736 39.6663C30.0857 40.5407 29.8915 41.409 29.6911 42.2772C29.4156 43.4928 28.8958 43.9703 27.6558 44.0447C25.8334 44.1625 24.011 44.2246 22.1823 44.3052Z" fill="#2D8C42" stroke="#70B852" stroke-miterlimit="10"/>
<path d="M121.044 40.8135C121.044 42.4446 121.018 44.0756 121.056 45.7067C121.069 46.3703 120.768 46.4881 120.192 46.4881C119.616 46.4881 119.309 46.3517 119.315 45.7067C119.334 42.8043 119.321 39.9019 119.328 36.9995C119.328 36.646 119.24 36.2366 119.797 36.1374C120.718 35.9762 121.263 36.1312 121.438 36.708C121.92 38.246 122.371 39.7902 122.841 41.3345C122.891 41.4895 122.947 41.6508 123.085 41.7872C123.085 40.2058 123.079 38.6243 123.085 37.0367C123.091 36.2242 123.83 35.8087 124.563 36.187C124.82 36.3173 124.801 36.5467 124.801 36.7638C124.807 39.7902 124.801 42.8167 124.801 45.8431C124.801 46.1656 124.751 46.4943 124.338 46.4571C123.818 46.4075 123.135 46.7982 122.86 45.9858C122.421 44.671 121.989 43.35 121.557 42.0291C121.419 41.6135 121.281 41.2042 121.144 40.7949C121.112 40.7949 121.081 40.8073 121.044 40.8135Z" fill="black"/>
<path d="M53.8203 36.0382C53.6763 36.032 53.3444 36.032 53.025 36.001C52.2923 35.9204 51.8414 35.5545 51.7349 34.7917C51.6347 34.0785 51.4781 33.3777 51.3403 32.6707C51.1587 31.7466 51.3967 31.3807 52.3611 31.2691C53.526 31.1327 54.6971 31.0458 55.8682 30.9528C56.6886 30.8908 57.5153 30.8226 58.3357 30.8102C59.1811 30.7978 59.8136 31.1079 60.0829 32.0071C60.3209 32.7885 60.6528 33.5451 60.9722 34.2955C61.2478 34.9281 61.0286 35.3002 60.4086 35.4863C60.0767 35.5855 59.7259 35.6723 59.3815 35.6971C57.5904 35.8212 55.793 35.9204 53.8203 36.0382Z" fill="#2D8C42" stroke="#70B852" stroke-miterlimit="10"/>
<path d="M18.9134 38.8415C21.2305 38.8043 21.337 38.9593 20.6481 40.6772C20.36 41.3904 20.0218 42.0912 19.8027 42.823C19.4582 43.9889 18.6065 44.4292 17.5043 44.5036C15.8322 44.6153 14.1601 44.6773 12.488 44.7393C12.0872 44.7579 11.6613 44.7269 11.3983 44.3672C11.1227 43.9827 11.4108 43.6664 11.5861 43.3439C12.1059 42.3827 12.6633 41.44 13.133 40.4539C13.5463 39.5857 14.2164 39.1888 15.1308 39.1205C16.5524 39.0151 17.974 38.9097 18.9134 38.8415Z" fill="#2D8C42" stroke="#70B852" stroke-miterlimit="10"/>
<path d="M41.7651 34.308C41.7651 33.9855 41.7651 33.6631 41.7651 33.3406C41.7714 32.4351 42.0094 32.1064 42.9049 32.0134C44.7148 31.8273 46.531 31.6599 48.3534 31.5607C49.5934 31.4924 49.8627 31.7777 50.0568 33.0119C50.1695 33.7189 50.2635 34.4321 50.4138 35.1329C50.5202 35.6538 50.2823 35.9267 49.8439 36.1127C49.1863 36.398 48.4724 36.3794 47.7835 36.4414C46.318 36.5717 44.8463 36.6399 43.3746 36.7205C42.1346 36.7825 41.7714 36.429 41.7651 35.1949C41.7651 34.9034 41.7651 34.6057 41.7651 34.308Z" fill="#2D8C42" stroke="#70B852" stroke-miterlimit="10"/>
<path d="M152.544 41.2974C152.544 40.4043 152.519 39.5175 152.55 38.6244C152.594 37.4337 153.283 36.4848 154.273 36.1623C155.337 35.815 156.396 36.1251 157.11 36.9747C157.51 37.4585 157.673 38.029 157.679 38.6306C157.698 40.4105 157.711 42.1966 157.679 43.9765C157.654 45.192 156.915 46.1657 155.888 46.4572C154.774 46.7735 153.722 46.4262 153.033 45.5021C152.657 44.9998 152.557 44.4168 152.544 43.8215C152.532 42.9842 152.538 42.1408 152.544 41.2974C152.538 41.2974 152.544 41.2974 152.544 41.2974ZM155.819 41.285C155.819 40.4477 155.826 39.6043 155.819 38.767C155.819 38.2833 155.719 37.8492 155.106 37.843C154.492 37.8368 154.273 38.2461 154.273 38.767C154.26 40.4477 154.26 42.1284 154.273 43.8091C154.279 44.3238 154.479 44.7641 155.093 44.7393C155.657 44.7145 155.826 44.3114 155.819 43.8091C155.819 42.9656 155.819 42.1284 155.819 41.285Z" fill="black"/>
<path d="M136.042 41.3037C136.042 42.1719 136.061 43.034 136.036 43.9022C135.998 45.4216 135.009 46.4883 133.587 46.5876C132.284 46.6806 131.076 45.7255 130.969 44.2619C130.819 42.1967 130.756 40.1067 131.019 38.0416C131.17 36.8694 132.247 36.0322 133.437 36.0074C134.577 35.9888 135.641 36.7888 135.923 37.8927C135.961 38.0354 136.011 38.1842 136.011 38.3268C136.017 39.3191 136.017 40.3052 136.017 41.2975C136.023 41.3037 136.03 41.3037 136.042 41.3037ZM134.176 41.2603C134.176 40.4168 134.182 39.5734 134.176 38.73C134.176 38.2338 134.032 37.8245 133.424 37.8369C132.854 37.8493 132.635 38.24 132.629 38.73C132.61 40.4416 132.61 42.1533 132.629 43.865C132.635 44.3611 132.898 44.7456 133.456 44.727C133.982 44.7084 134.17 44.3363 134.176 43.8588C134.182 42.9967 134.176 42.1285 134.176 41.2603Z" fill="black"/>
<path d="M163.779 41.3097C163.779 40.3918 163.773 39.474 163.779 38.5623C163.792 37.1359 164.838 36.063 166.259 36.0258C167.556 35.9948 168.689 37.0243 168.821 38.3639C168.833 38.4879 168.827 38.612 168.833 38.736C168.846 39.7159 168.251 40.1128 167.299 39.7655C167.067 39.6849 167.004 39.5174 166.992 39.3127C166.973 39.0647 166.979 38.8166 166.967 38.5685C166.942 38.0972 166.704 37.8305 166.209 37.8429C165.746 37.8553 165.533 38.1282 165.52 38.5623C165.508 39.4306 165.508 40.2988 165.508 41.1609C165.508 42.0539 165.508 42.947 165.514 43.8338C165.514 44.3299 165.658 44.7455 166.259 44.7393C166.86 44.7269 166.973 44.2927 166.973 43.809C166.973 43.4617 166.973 43.1144 166.973 42.7671C166.973 42.4818 166.942 42.209 166.572 42.1655C166.24 42.1283 166.215 41.8865 166.197 41.626C166.103 40.5283 166.171 40.4353 167.292 40.4415C168.983 40.4477 168.833 40.2554 168.839 41.9361C168.846 42.6307 168.852 43.3253 168.833 44.0137C168.795 45.4835 167.674 46.606 166.272 46.5874C164.831 46.5688 163.792 45.4835 163.785 43.9889C163.773 43.0958 163.779 42.2028 163.779 41.3097Z" fill="black"/>
<path d="M108.167 41.2724C108.167 39.8088 108.199 38.3452 108.155 36.8878C108.136 36.2056 108.481 36.125 109.032 36.125C109.589 36.125 109.946 36.2242 109.915 36.894C109.877 37.8367 109.94 38.7793 109.896 39.7158C109.865 40.3484 110.165 40.4414 110.71 40.4538C111.292 40.4662 111.518 40.2802 111.493 39.6848C111.455 38.7421 111.512 37.7995 111.474 36.863C111.449 36.1684 111.856 36.125 112.388 36.125C112.902 36.125 113.24 36.1932 113.234 36.8444C113.209 39.815 113.209 42.7919 113.234 45.7625C113.24 46.4013 112.921 46.4943 112.395 46.4881C111.869 46.4819 111.449 46.4633 111.474 45.7563C111.505 44.7888 111.449 43.8213 111.493 42.8601C111.524 42.1903 111.148 42.1779 110.641 42.1593C110.09 42.1407 109.877 42.3267 109.896 42.8849C109.927 43.8276 109.877 44.7702 109.915 45.7067C109.94 46.3703 109.608 46.4881 109.038 46.4819C108.493 46.4757 108.13 46.4137 108.149 45.7253C108.192 44.2431 108.167 42.7547 108.167 41.2724Z" fill="black"/>
<path d="M33.7368 37.3593C32.3966 37.3717 32.0897 37.0244 32.3214 35.8585C32.4529 35.2011 32.622 34.5499 32.716 33.8925C32.8099 33.2228 33.2045 32.9127 33.8119 32.7328C34.5196 32.5282 35.2523 32.5902 35.9725 32.5158C37.0873 32.3979 38.2145 32.3173 39.3355 32.2925C40.3626 32.2677 40.6194 32.615 40.5254 33.6073C40.4628 34.246 40.4252 34.8972 40.4503 35.536C40.4816 36.3298 40.0933 36.7205 39.3606 36.9004C38.2584 37.1733 37.1186 37.0678 36.0038 37.1981C35.221 37.2849 34.4131 37.2539 33.7368 37.3593Z" fill="#2D8C42" stroke="#70B852" stroke-miterlimit="10"/>
<path d="M24.3866 37.9299C23.2343 37.9485 23.0026 37.626 23.3909 36.5593C23.6476 35.8585 23.942 35.1763 24.1737 34.4693C24.3991 33.7933 24.8876 33.4336 25.5452 33.3654C27.211 33.1855 28.8769 33.0367 30.549 32.9375C31.5009 32.8816 31.7451 33.2413 31.5447 34.1716C31.4007 34.8476 31.2003 35.5174 31.0938 36.1996C30.9686 36.981 30.4864 37.3469 29.7662 37.5143C28.7579 37.75 27.7246 37.6508 26.71 37.7872C25.9397 37.8988 25.1569 37.8926 24.3866 37.9299Z" fill="#2D8C42" stroke="#70B852" stroke-miterlimit="10"/>
<path d="M96.9135 41.2601C96.9824 40.2492 96.8196 39.2259 97.0075 38.2213C97.2642 36.8631 98.3539 35.9514 99.6127 36.032C100.978 36.1189 101.942 37.0801 102.061 38.4879C102.074 38.612 102.08 38.736 102.068 38.86C102.036 39.1639 102.193 39.5856 101.811 39.7221C101.366 39.8833 100.853 39.8895 100.414 39.7035C100.089 39.567 100.22 39.1763 100.208 38.891C100.189 38.3701 100.176 37.843 99.4624 37.8492C98.7861 37.8554 98.6608 38.3763 98.6545 38.891C98.6295 40.5035 98.6295 42.1097 98.6545 43.7222C98.6608 44.2307 98.7861 44.7703 99.4687 44.7455C100.145 44.7207 100.208 44.2059 100.208 43.6726C100.208 43.1206 100.051 42.4943 101.003 42.5253C102.005 42.5625 102.061 42.5687 102.068 43.561C102.074 45.2044 101.416 46.1905 100.101 46.5006C98.6859 46.8355 97.3519 46.0106 97.0388 44.6028C96.8008 43.4927 96.9887 42.3702 96.9135 41.2601Z" fill="black"/>
<path d="M16.5019 38.4631C16.051 38.3949 15.6126 38.5624 15.1554 38.4507C14.6607 38.3267 14.4477 38.0662 14.6982 37.5949C15.2055 36.6274 15.7128 35.6662 16.2639 34.7235C16.5645 34.2087 17.1219 34.0227 17.6667 33.9731C19.2073 33.8242 20.7479 33.7064 22.2948 33.6382C23.2091 33.601 23.3719 33.8863 23.0463 34.7173C22.7644 35.4305 22.4451 36.1313 22.1946 36.8569C21.9253 37.6259 21.3804 38.0476 20.5976 38.1282C19.2386 38.2647 17.8671 38.3515 16.5019 38.4631Z" fill="#2D8C42" stroke="#70B852" stroke-miterlimit="10"/>
<path d="M53.1759 30.6739C50.9527 30.7235 50.9526 30.7235 50.5769 28.9002C50.1886 27.0459 50.3264 26.8909 52.2615 26.7606C53.5829 26.6738 54.9043 26.5374 56.2195 26.3947C57.4657 26.2583 57.9041 26.5001 58.3425 27.6289C58.5304 28.1126 58.7183 28.6025 58.9249 29.0801C59.2005 29.7126 58.8873 30.0103 58.3237 30.1778C57.4031 30.4506 56.4387 30.37 55.493 30.4941C54.6037 30.6243 53.7019 30.6429 53.1759 30.6739Z" fill="#2D8C42" stroke="#70B852" stroke-miterlimit="10"/>
<path d="M194.347 43.4183C194.835 43.3439 195.061 43.5362 195.205 44.0137C195.43 44.7951 195.869 45.0556 196.37 44.8385C196.858 44.6277 197.052 43.8649 196.726 43.2695C196.338 42.5563 195.668 42.0912 195.086 41.5454C194.146 40.6586 193.42 39.6911 193.551 38.3081C193.67 37.0306 194.522 36.1561 195.806 36.0197C197.071 35.8894 198.161 36.615 198.493 37.8058C198.593 38.1655 198.674 38.5438 198.154 38.5996C197.703 38.643 197.134 39.1702 196.833 38.3701C196.67 37.936 196.438 37.5887 195.906 37.719C195.399 37.843 195.418 38.2771 195.405 38.6802C195.386 39.2198 195.649 39.6353 196.013 39.995C196.526 40.5035 197.096 40.9625 197.578 41.4958C198.33 42.333 198.868 43.2571 198.624 44.4602C198.336 45.899 197.296 46.7239 195.925 46.5812C194.522 46.4324 193.414 45.2789 193.414 43.9641C193.42 43.2695 193.983 43.4928 194.347 43.4183Z" fill="black"/>
<path d="M86.2548 41.3034C86.2548 39.8646 86.2736 38.432 86.2423 36.9932C86.2297 36.3668 86.4239 36.0878 87.1002 36.1126C88.0709 36.156 89.0542 36.156 90.0249 36.1126C90.7325 36.0816 90.8327 36.4165 90.8515 37.0118C90.8641 37.6568 90.6574 37.9297 89.9935 37.8553C89.6241 37.8181 89.242 37.8491 88.8663 37.8491C88.741 37.8491 88.5907 37.8119 88.4968 37.8677C87.6764 38.3638 88.2525 39.1576 88.1085 39.8026C88.0334 40.1499 88.1649 40.4476 88.622 40.429C88.8224 40.4228 89.0228 40.4538 89.2232 40.429C89.9497 40.3298 90.0937 40.6895 90.1 41.3344C90.1063 41.998 89.8746 42.1965 89.2295 42.1779C88.096 42.1531 88.096 42.1841 88.096 43.3128C88.1022 44.9562 87.9645 44.7268 89.5364 44.7454C89.6616 44.7454 89.7869 44.7454 89.9121 44.7454C90.7325 44.7516 91.1772 45.533 90.7701 46.24C90.6511 46.4509 90.4507 46.4633 90.2566 46.4633C89.1293 46.4695 88.0083 46.4571 86.881 46.4695C86.2986 46.4757 86.2548 46.116 86.2548 45.6818C86.261 44.2244 86.2548 42.767 86.2548 41.3034Z" fill="black"/>
<path d="M185.009 36.1313C185.51 36.1313 186.012 36.1624 186.513 36.1251C187.22 36.0693 187.339 36.4228 187.339 37.0244C187.339 37.6012 187.208 37.9174 186.544 37.8678C186.049 37.8244 185.542 37.874 185.041 37.8554C184.621 37.843 184.44 38.0229 184.465 38.4322C184.477 38.6306 184.465 38.8291 184.465 39.0276C184.465 40.3733 184.465 40.4105 185.849 40.4229C186.581 40.4291 186.55 40.8571 186.563 41.3532C186.581 41.8866 186.444 42.1718 185.817 42.178C184.465 42.1904 184.465 42.2152 184.465 43.6044C184.465 44.7456 184.465 44.7456 185.598 44.7456C185.824 44.7456 186.049 44.7456 186.275 44.7456C187.327 44.7518 187.421 44.8634 187.327 45.9115C187.295 46.2712 187.158 46.4696 186.782 46.4696C185.604 46.4696 184.427 46.4696 183.25 46.4696C182.868 46.4696 182.724 46.2588 182.724 45.9053C182.724 42.8292 182.73 39.7532 182.724 36.6771C182.724 36.2988 182.918 36.1375 183.281 36.1375C183.857 36.1375 184.433 36.1375 185.009 36.1375V36.1313Z" fill="black"/>
<path d="M41.7778 29.6133C41.7778 27.8396 41.972 27.6411 43.7568 27.5233C45.1534 27.4303 46.5437 27.2814 47.9402 27.2194C48.9422 27.176 49.1051 27.3496 49.2804 28.3171C49.3681 28.807 49.3994 29.3032 49.5247 29.7807C49.7125 30.4877 49.3618 30.7854 48.7544 30.9653C48.1218 31.1575 47.4643 31.1141 46.8192 31.1761C45.598 31.2815 44.3831 31.387 43.1556 31.4304C41.9532 31.4738 41.7841 31.2691 41.7778 30.066C41.7778 29.911 41.7778 29.7621 41.7778 29.6133Z" fill="#2D8C42" stroke="#70B852" stroke-miterlimit="10"/>
<path d="M34.5253 32.1622C33.279 32.1808 33.1162 31.9886 33.3479 30.7854C33.4168 30.4195 33.5295 30.0598 33.5546 29.6939C33.6172 28.8195 34.137 28.4164 34.9574 28.342C36.5231 28.2055 38.095 28.0567 39.6669 27.9761C40.5624 27.9326 40.7816 28.2055 40.719 29.0862C40.6877 29.5575 40.5937 30.0226 40.6188 30.494C40.6564 31.2754 40.2556 31.6413 39.5291 31.7281C38.6336 31.8335 37.7443 31.9266 36.8487 32.001C36.0722 32.0692 35.3019 32.1064 34.5253 32.1622Z" fill="#2D8C42" stroke="#70B852" stroke-miterlimit="10"/>
<path d="M27.2174 32.7575C24.8251 32.8071 24.8877 32.7885 25.4263 31.0334C25.8521 29.6442 26.6036 28.9744 28.0816 28.9558C29.2778 28.9372 30.4676 28.6953 31.6701 28.7077C32.5656 28.7139 32.6971 28.8752 32.528 29.7186C32.4341 30.1775 32.3214 30.6365 32.2212 31.0954C32.002 32.0691 31.7264 32.3482 30.7307 32.4474C29.3842 32.5838 28.0378 32.683 27.2174 32.7575Z" fill="#2D8C42" stroke="#70B852" stroke-miterlimit="10"/>
<path d="M55.3238 22.7543C56.1004 22.7108 56.6265 22.9961 56.8394 23.7837C56.9208 24.0938 57.0711 24.3853 57.1838 24.6892C57.5095 25.5822 57.3905 25.8613 56.4198 25.9854C54.7101 26.2024 52.9942 26.3637 51.2782 26.4753C50.2762 26.5373 50.057 26.2892 49.8441 25.266C49.4558 23.393 49.4558 23.393 51.3784 23.1884C52.6936 23.0395 54.0087 22.8969 55.3238 22.7543Z" fill="#2D8C42" stroke="#70B852" stroke-miterlimit="10"/>
<path d="M17.9987 33.4832C17.266 33.4894 17.0719 33.1731 17.4852 32.4227C17.7733 31.9017 18.0676 31.3808 18.3119 30.8412C18.5937 30.2149 19.0634 29.8427 19.7272 29.7621C21.1613 29.5885 22.6017 29.4272 24.0421 29.328C24.8938 29.266 25.0755 29.5761 24.7811 30.3637C24.6246 30.7792 24.3991 31.1761 24.2926 31.604C24.0296 32.6273 23.3282 33.049 22.3387 33.1359C20.9422 33.2537 19.5456 33.3591 17.9987 33.4832Z" fill="#2D8C42" stroke="#70B852" stroke-miterlimit="10"/>
<path d="M76.9045 42.1531C76.9045 40.9624 76.8857 39.7717 76.9107 38.5871C76.9233 38.0476 76.7604 37.8305 76.1905 37.8429C75.3576 37.8615 74.9255 37.1111 75.3013 36.3731C75.4328 36.1189 75.6645 36.1313 75.8837 36.1313C77.1362 36.1251 78.3825 36.1375 79.635 36.1251C80.3364 36.1189 80.2675 36.5964 80.28 37.0429C80.2925 37.508 80.2299 37.9298 79.6099 37.8429C78.7895 37.7251 78.5954 38.091 78.6142 38.8476C78.658 41.074 78.633 43.3067 78.6267 45.5331C78.6267 46.3765 77.9629 46.7672 77.1738 46.4199C76.8669 46.2835 76.9107 46.023 76.9107 45.7874C76.8982 44.5842 76.9045 43.3687 76.9045 42.1531Z" fill="black"/>
<path d="M47.0132 23.6101C47.5518 23.7093 48.2094 23.4054 48.4474 23.9512C48.7542 24.6458 48.9045 25.4272 48.7981 26.1962C48.7417 26.5869 48.3159 26.6986 47.9714 26.7358C46.2805 26.9218 44.5896 27.1079 42.8987 27.2257C42.0032 27.2877 41.8028 27.0211 41.784 26.1404C41.7527 24.1931 41.8466 24.0938 43.8632 23.9326C44.4143 23.8892 44.9591 23.8272 45.504 23.7714C46.03 23.7217 46.5498 23.6659 47.0132 23.6101Z" fill="#2D8C42" stroke="#70B852" stroke-miterlimit="10"/>
<path d="M142.136 41.2354C142.136 39.7966 142.161 38.3578 142.123 36.919C142.111 36.2864 142.368 36.1128 142.963 36.1128C143.558 36.119 143.896 36.2244 143.883 36.9252C143.852 39.2571 143.896 41.5889 143.858 43.9208C143.846 44.5844 144.071 44.8324 144.722 44.7518C144.967 44.7208 145.223 44.7456 145.474 44.7456C146.445 44.7518 146.457 44.7828 146.451 45.7627C146.451 46.2588 146.288 46.4883 145.756 46.4759C144.779 46.4573 143.802 46.4573 142.825 46.4759C142.305 46.4883 142.117 46.2774 142.123 45.7689C142.149 44.2619 142.136 42.7486 142.136 41.2354Z" fill="black"/>
<path d="M35.0956 27.9822C34.1813 27.9884 33.9871 27.7713 34.1124 26.9279C34.4067 24.9495 34.5132 24.8627 36.5298 24.6767C37.6695 24.5774 38.8031 24.3666 39.9554 24.3852C40.7695 24.3976 40.9261 24.5774 40.8321 25.3713C40.8071 25.6193 40.7758 25.8612 40.7633 26.1093C40.7194 27.2504 40.5629 27.4302 39.4356 27.5543C37.9764 27.7031 36.511 27.8396 35.0956 27.9822Z" fill="#2D8C42" stroke="#70B852" stroke-miterlimit="10"/>
<path d="M28.3259 28.5901C26.4533 28.6335 26.4784 28.5777 26.8917 27.1761C27.2612 25.9233 27.9689 25.421 29.259 25.3962C30.3988 25.3714 31.5386 25.1233 32.6909 25.1233C33.3046 25.1233 33.5489 25.3217 33.4048 25.9791C32.9664 28.0505 32.9852 28.0691 30.8685 28.3482C29.8978 28.4722 28.9271 28.5342 28.3259 28.5901Z" fill="#2D8C42" stroke="#70B852" stroke-miterlimit="10"/>
<path d="M20.4223 29.3279C19.4077 29.3341 19.3451 29.1295 19.6582 28.317C20.297 26.6674 21.4431 25.9294 23.2217 26.0038C23.9857 26.0348 24.7622 25.8239 25.5325 25.7681C26.3404 25.7123 26.4469 25.9666 26.259 26.7356C25.8519 28.3791 24.8875 29.1357 23.1465 29.0737C22.2071 29.0364 21.2615 29.2411 20.4223 29.3279Z" fill="#2D8C42" stroke="#70B852" stroke-miterlimit="10"/>
<path d="M176.655 41.3841C176.655 42.8229 176.624 44.2555 176.668 45.6943C176.687 46.4137 176.317 46.4819 175.741 46.4943C175.14 46.5005 174.896 46.3207 174.896 45.6881C174.921 42.7671 174.927 39.846 174.896 36.9188C174.889 36.1994 175.246 36.1312 175.822 36.1188C176.424 36.1126 176.68 36.2925 176.668 36.925C176.63 38.4072 176.655 39.8957 176.655 41.3841Z" fill="black"/>
<defs>
<linearGradient id="paint0_linear_133_5986" x1="6.26259" y1="3.41095" x2="25.9753" y2="49.444" gradientUnits="userSpaceOnUse">
<stop stop-color="#FBB90E"/>
<stop offset="1" stop-color="#EE751D"/>
</linearGradient>
</defs>
</svg>
